<svg version="1.1" id="Layer_1" xmlns="http://www.w3.org/2000/svg" xmlns:xlink="http://www.w3.org/1999/xlink" x="0px" y="0px"
	 width="100%" viewBox="0 0 1000 264" enable-background="new 0 0 1000 264" xml:space="preserve">
<path fill="#F6F6F6" opacity="1.000000" stroke="none" 
	d="
M1.000000,264.000000 
	C1.000000,176.971970 1.000000,89.943939 1.215299,2.344520 
	C1.704812,1.577601 1.894613,1.319889 2.000000,1.000000 
	C325.361359,1.000000 648.722717,1.000000 972.541260,1.468657 
	C972.998901,89.624878 972.999451,177.312439 973.000000,265.000000 
	C649.638611,265.000000 326.277283,265.000000 2.347216,264.783325 
	C1.573919,264.302338 1.314411,264.113464 1.000000,264.000000 
M35.504257,244.957153 
	C188.057983,244.957153 340.611725,244.957153 493.210632,244.957153 
	C493.210632,170.074890 493.210632,95.846306 493.210632,21.499516 
	C335.462189,21.499516 178.079178,21.499516 20.423969,21.499516 
	C20.423969,96.000160 20.423969,170.218735 20.423969,244.957153 
	C25.268583,244.957153 29.887465,244.957153 35.504257,244.957153 
M686.500000,244.957718 
	C775.247070,244.957718 863.994202,244.957718 952.688843,244.957718 
	C952.688843,170.072067 952.688843,95.839233 952.688843,21.570461 
	C803.664429,21.570461 654.957214,21.570461 506.301880,21.570461 
	C506.301880,96.163765 506.301880,170.405914 506.301880,244.957718 
	C566.239563,244.957718 625.869751,244.957718 686.500000,244.957718 
z"/>
<path fill="#FFFFFF" opacity="1.000000" stroke="none" 
	d="
M973.468628,265.000000 
	C972.999451,177.312439 972.998901,89.624878 972.999146,1.468657 
	C982.318542,1.000000 991.637024,1.000000 1001.000000,1.000000 
	C1001.000000,83.354225 1001.000000,165.708450 1000.683533,248.387802 
	C1000.211426,248.244171 1000.120117,247.740952 999.890320,247.311966 
	C997.099854,242.103714 992.253052,239.766891 986.652222,240.904602 
	C981.784607,241.893372 978.045959,246.343292 977.744812,251.506607 
	C977.421692,257.046997 980.502197,261.747925 985.563477,263.438049 
	C990.848083,265.202728 996.002014,263.283051 999.310303,258.334381 
	C999.843872,257.536377 1000.435364,256.777191 1001.000000,256.000000 
	C1001.000000,258.964050 1001.000000,261.928131 1001.000000,265.000000 
	C991.979309,265.000000 982.958313,265.000000 973.468628,265.000000 
z"/>
<path fill="#20A2CF" opacity="1.000000" stroke="none" 
	d="
M1001.000000,255.562500 
	C1000.435364,256.777191 999.843872,257.536377 999.310303,258.334381 
	C996.002014,263.283051 990.848083,265.202728 985.563477,263.438049 
	C980.502197,261.747925 977.421692,257.046997 977.744812,251.506607 
	C978.045959,246.343292 981.784607,241.893372 986.652222,240.904602 
	C992.253052,239.766891 997.099854,242.103714 999.890320,247.311966 
	C1000.120117,247.740952 1000.211426,248.244171 1000.683533,248.856461 
	C1001.000000,251.041672 1001.000000,253.083328 1001.000000,255.562500 
M990.226501,261.967346 
	C996.717346,260.145935 1000.032471,255.509048 998.691895,250.126709 
	C997.448608,245.135117 993.003479,242.171921 987.778442,242.851608 
	C983.225037,243.443909 979.776184,247.435425 979.732239,252.163681 
	C979.681458,257.629974 983.174866,261.174500 990.226501,261.967346 
z"/>
<path fill="#FFFFFF" opacity="1.000000" stroke="none" 
	d="
M1.000000,264.500000 
	C1.314411,264.113464 1.573919,264.302338 1.889263,264.783325 
	C1.666667,265.000000 1.333333,265.000000 1.000000,264.500000 
z"/>
<path fill="#FFFFFF" opacity="1.000000" stroke="none" 
	d="
M1.500000,1.000000 
	C1.894613,1.319889 1.704812,1.577601 1.215299,1.886567 
	C1.000000,1.666667 1.000000,1.333333 1.500000,1.000000 
z"/>
<path fill="#0296C8" opacity="1.000000" stroke="none" 
	d="
M35.005302,244.957153 
	C29.887465,244.957153 25.268583,244.957153 20.423969,244.957153 
	C20.423969,170.218735 20.423969,96.000160 20.423969,21.499516 
	C178.079178,21.499516 335.462189,21.499516 493.210632,21.499516 
	C493.210632,95.846306 493.210632,170.074890 493.210632,244.957153 
	C340.611725,244.957153 188.057983,244.957153 35.005302,244.957153 
M277.332275,107.795921 
	C271.375824,124.245102 265.419373,140.694275 259.048370,158.288269 
	C258.004639,155.664490 257.441132,154.338593 256.945251,152.987869 
	C247.725204,127.875275 238.500641,102.764313 229.319901,77.637344 
	C228.442719,75.236610 227.899261,73.187294 224.412857,73.280663 
	C214.421936,73.548248 204.417664,73.476860 194.421951,73.323288 
	C190.587128,73.264366 190.304199,74.995621 191.258652,77.925400 
	C193.010483,78.227867 194.644653,78.501076 196.275452,78.793144 
	C203.686234,80.120384 204.412369,80.994385 204.415909,88.613693 
	C204.420334,98.111862 204.443893,107.610123 204.413101,117.108192 
	C204.350464,136.434174 204.433701,155.763214 204.088562,175.084412 
	C203.951538,182.755936 200.756577,186.314743 193.451004,188.151642 
	C190.381592,188.923416 189.091812,190.114044 190.514679,193.345200 
	C202.551086,193.345200 214.643814,193.345200 226.944733,193.345200 
	C226.944733,191.795990 226.944733,190.528473 226.944733,189.301270 
	C212.613159,186.616211 210.176498,183.609116 210.175690,168.828339 
	C210.175095,158.330353 210.175644,147.832382 210.175659,137.334396 
	C210.175674,121.925652 210.175674,106.516907 210.175674,91.108162 
	C211.637039,92.508659 212.348907,94.091042 212.946655,95.715431 
	C224.482269,127.063446 235.985870,158.423309 247.586807,189.747116 
	C248.144272,191.252365 249.536041,192.448639 250.539276,193.788788 
	C251.391617,192.482666 252.527176,191.281158 253.054031,189.854828 
	C261.748718,166.315750 270.360565,142.746094 279.005035,119.188431 
	C282.746399,108.992638 286.519714,98.808571 290.278473,88.619179 
	C290.566895,88.688866 290.855286,88.758560 291.143707,88.828255 
	C291.143707,90.451660 291.143646,92.075058 291.143707,93.698463 
	C291.144348,120.693268 291.151398,147.688065 291.142792,174.682877 
	C291.138916,186.844391 289.766266,188.251816 277.443512,188.919968 
	C277.145782,188.936111 276.859985,189.172394 275.181519,189.942062 
	C276.684052,191.394394 277.823700,193.462555 278.990417,193.477936 
	C295.126312,193.690872 311.265930,193.621841 327.699646,193.621841 
	C327.699646,191.860992 327.699646,190.490005 327.699646,189.143906 
	C313.586273,187.795166 313.012238,187.151413 313.012085,172.935242 
	C313.011841,146.440338 313.011871,119.945442 313.012177,93.450539 
	C313.012329,79.967102 313.612793,79.310379 327.091797,78.013535 
	C327.231262,78.000107 327.357239,77.846397 327.633484,77.662186 
	C327.633484,76.389709 327.633484,75.038170 327.633484,73.380112 
	C315.628906,73.380112 303.981049,73.283279 292.340057,73.522346 
	C291.107605,73.547653 289.315582,75.315247 288.800629,76.663239 
	C284.947021,86.750824 281.349457,96.936211 277.332275,107.795921 
M342.426910,186.135330 
	C341.056427,186.726440 339.733582,187.501892 338.305695,187.870926 
	C335.170868,188.681122 334.264526,190.345657 335.791229,193.369980 
	C347.108551,193.369980 358.375854,193.369980 369.810547,193.369980 
	C369.810547,191.831451 369.810547,190.549118 369.810547,189.119965 
	C368.208557,188.884811 366.749908,188.732468 365.316925,188.449997 
	C357.902496,186.988464 356.010193,184.134003 358.230438,176.884460 
	C359.930176,171.334366 361.984650,165.873276 364.259705,160.533829 
	C364.782532,159.306839 366.845612,158.003143 368.217102,157.984161 
	C381.873871,157.795288 395.534576,157.829117 409.193176,157.932724 
	C410.475006,157.942459 412.491364,158.513367 412.909943,159.410248 
	C416.069427,166.180084 419.156372,173.006714 421.758514,180.004303 
	C423.121216,183.668961 421.251465,186.583344 417.450958,187.703506 
	C415.242126,188.354523 412.876251,188.468063 410.585602,188.850510 
	C410.132019,188.926270 409.699097,189.125626 408.928955,189.373413 
	C409.109253,190.799805 409.279022,192.142822 409.430450,193.340729 
	C426.876099,193.340729 443.808350,193.340729 460.740631,193.340729 
	C461.079163,192.944778 461.417694,192.548813 461.756226,192.152863 
	C460.645020,190.928802 459.648712,188.787903 458.403625,188.631851 
	C451.174408,187.725800 447.492035,183.274155 444.786102,177.003448 
	C430.300323,143.434433 415.643524,109.939209 401.020630,76.429474 
	C400.203583,74.557091 399.162018,72.782684 398.067261,70.656418 
	C392.421326,76.860252 387.307251,82.479706 383.000061,87.212517 
	C383.340820,90.770264 384.567993,93.798691 383.698547,95.998459 
	C373.500275,121.801208 363.173004,147.557907 352.388977,173.119720 
	C350.409637,177.811432 346.238495,181.578430 342.426910,186.135330 
M117.415039,195.852463 
	C123.518105,195.119980 129.739349,194.909576 135.702652,193.559708 
	C155.712387,189.030289 165.744339,176.630753 166.109222,155.974823 
	C166.391739,139.982162 166.172028,123.980606 166.175110,107.983002 
	C166.176208,102.317169 166.082504,96.649452 166.197311,90.985939 
	C166.386002,81.678635 169.139648,78.830826 178.296555,78.140884 
	C178.754242,78.106392 179.195663,77.855568 179.763855,77.665619 
	C179.763855,76.331322 179.763855,75.074997 179.763855,73.385994 
	C168.398514,73.385994 157.258423,73.289513 146.126221,73.541420 
	C145.061478,73.565514 144.045898,75.762474 142.260605,77.805374 
	C145.771957,78.101921 147.432770,78.155548 149.066360,78.394936 
	C156.712173,79.515373 160.003738,82.881004 160.052399,90.671387 
	C160.195999,113.666313 160.301514,136.665604 159.992661,159.657410 
	C159.845413,170.618607 154.529434,179.327438 144.946732,184.539017 
	C139.649292,187.420013 133.574158,189.390396 127.614937,190.444122 
	C103.547981,194.699738 88.178162,183.186066 86.971619,158.886795 
	C85.849228,136.282593 86.121284,113.592453 86.338989,90.945534 
	C86.445213,79.896049 88.271568,78.704208 99.507393,78.141060 
	C99.962105,78.118263 100.404335,77.846397 100.803375,77.707619 
	C101.995377,74.119713 100.425179,73.306381 97.184540,73.331978 
	C83.187485,73.442520 69.189026,73.368011 55.191166,73.398041 
	C54.262131,73.400032 53.333763,73.711403 52.405083,73.878876 
	C52.116310,74.351433 51.827534,74.823997 51.538761,75.296555 
	C52.786816,76.292107 53.893497,77.807648 55.307686,78.192131 
	C61.064259,79.757187 63.335278,82.017883 64.168869,88.132103 
	C64.549820,90.926331 64.783836,93.762711 64.797379,96.581352 
	C64.894966,116.909882 64.509155,137.250397 65.085411,157.564178 
	C65.625381,176.598541 77.045624,189.881760 95.650612,193.757034 
	C102.434715,195.170120 109.508080,195.194519 117.415039,195.852463 
z"/>
<path fill="#046CA8" opacity="1.000000" stroke="none" 
	d="
M686.000000,244.957718 
	C625.869751,244.957718 566.239563,244.957718 506.301880,244.957718 
	C506.301880,170.405914 506.301880,96.163765 506.301880,21.570461 
	C654.957214,21.570461 803.664429,21.570461 952.688843,21.570461 
	C952.688843,95.839233 952.688843,170.072067 952.688843,244.957718 
	C863.994202,244.957718 775.247070,244.957718 686.000000,244.957718 
M918.859924,168.028793 
	C919.192261,163.131485 915.433472,164.937958 913.299561,164.936584 
	C791.338257,164.857773 669.376892,164.866272 547.415527,164.866165 
	C545.779846,164.866165 544.144104,164.866165 542.190430,164.866165 
	C542.107727,166.531708 542.044250,167.810242 542.220398,169.852051 
	C544.236023,170.235092 546.251465,170.952515 548.267212,170.953400 
	C669.742676,171.006622 791.218079,171.001022 912.693542,170.999725 
	C914.026489,170.999710 915.433655,171.241409 916.667419,170.887177 
	C917.550171,170.633728 918.200562,169.571213 918.859924,168.028793 
M636.500244,98.736465 
	C605.090210,98.736465 573.680115,98.736465 541.839844,98.736465 
	C542.070068,100.822273 542.220215,102.182625 542.353638,103.391281 
	C668.081055,103.391281 793.319336,103.391281 918.836243,103.391281 
	C918.758057,101.762085 918.697021,100.490608 918.612915,98.737106 
	C824.742493,98.737106 731.121399,98.737106 636.500244,98.736465 
M732.870178,72.162392 
	C732.169189,76.552513 731.468140,80.942635 730.763550,85.355400 
	C735.142273,85.759186 735.206543,85.765617 735.535339,82.479561 
	C736.068909,77.148163 736.508667,71.807381 736.988037,66.470558 
	C737.306946,66.424019 737.625854,66.377480 737.944763,66.330948 
	C741.279419,72.970619 744.614136,79.610298 748.574341,87.495506 
	C752.621948,79.337769 755.925476,72.679581 759.229065,66.021400 
	C759.529236,66.127274 759.829468,66.233147 760.129639,66.339027 
	C760.851074,72.877731 761.572510,79.416435 762.271301,85.749664 
	C765.062500,85.749664 767.350037,85.749664 769.940979,85.749664 
	C768.545898,74.712181 767.181519,63.917557 765.614075,51.516552 
	C756.722778,57.508816 756.304443,67.670708 750.262146,74.478600 
	C747.188660,68.254982 744.034607,62.272755 741.280579,56.111713 
	C740.007690,53.264221 738.500732,52.272137 735.414307,53.607094 
	C734.597900,59.460762 733.773621,65.371300 732.870178,72.162392 
M823.106079,195.619522 
	C822.160400,202.178070 821.214722,208.736618 820.224731,215.602463 
	C821.726318,215.602463 823.103088,215.602463 824.551147,215.602463 
	C825.191162,209.179199 825.808167,202.987732 826.425110,196.796280 
	C826.815857,196.719070 827.206543,196.641861 827.597290,196.564651 
	C830.856934,203.072739 834.116577,209.580841 838.030884,217.395935 
	C842.047485,209.258469 845.408142,202.449875 848.768799,195.641281 
	C849.057922,195.723328 849.346985,195.805374 849.636047,195.887405 
	C850.306152,202.512817 850.976196,209.138214 851.637451,215.676453 
	C854.485168,215.676453 856.758484,215.676453 859.366516,215.676453 
	C858.023926,204.742798 856.714478,194.078964 855.411499,183.467926 
	C852.356201,182.146469 850.805420,183.099106 849.507812,185.970612 
	C846.735657,192.104935 843.558289,198.056137 840.042175,205.092529 
	C836.624512,198.098541 833.552124,192.108887 830.771912,185.986557 
	C829.520996,183.231766 828.037720,182.007156 824.919739,183.500076 
	C824.362915,187.207840 823.796997,190.976105 823.106079,195.619522 
M570.918030,130.373672 
	C569.187561,133.636505 567.457031,136.899323 565.368469,140.837280 
	C562.002441,133.967499 558.907104,127.915855 556.071594,121.744850 
	C554.763428,118.897903 553.071289,118.188210 550.296448,119.485924 
	C548.760498,130.217987 547.245239,140.805954 545.717346,151.481812 
	C549.823975,151.464218 549.871460,151.469604 550.212158,148.470398 
	C550.822144,143.100250 551.368713,137.722885 551.941772,132.348541 
	C552.255127,132.271622 552.568542,132.194717 552.881897,132.117813 
	C556.163452,138.763535 559.445007,145.409241 563.401855,153.422592 
	C567.542358,145.055984 570.908325,138.254517 574.831726,130.326660 
	C575.683167,138.318878 576.382812,144.885956 577.092651,151.548462 
	C579.826965,151.548462 582.238281,151.548462 584.810303,151.548462 
	C583.432983,140.586075 582.092712,129.918304 580.509338,117.315811 
	C578.003174,119.458397 576.113037,120.533257 575.010437,122.146431 
	C573.435547,124.450653 572.437134,127.148972 570.918030,130.373672 
M669.814697,146.345673 
	C669.814697,147.957962 669.814697,149.570236 669.814697,151.468231 
	C675.822754,151.468231 681.339661,152.004105 686.711365,151.348953 
	C695.925537,150.225113 701.645935,142.266983 700.848816,132.716751 
	C700.088074,123.602150 694.695007,118.837555 684.746582,118.630089 
	C679.945801,118.529968 675.141174,118.612808 669.815613,118.612808 
	C669.815613,127.818481 669.815613,136.600189 669.814697,146.345673 
M736.222595,184.983688 
	C728.337341,181.027283 720.094604,183.424927 711.852051,182.790405 
	C711.852051,193.752258 711.847229,203.885300 711.867554,214.018295 
	C711.868469,214.479874 712.096252,214.940979 712.284546,215.652512 
	C717.562256,215.652512 722.875366,216.094940 728.082886,215.542587 
	C734.877930,214.821854 739.928101,211.086792 741.878418,204.306580 
	C743.941833,197.132996 743.177734,190.461426 736.222595,184.983688 
M569.740356,80.124466 
	C566.951416,83.245956 563.513611,83.854874 559.782288,82.339767 
	C556.008850,80.807556 555.040344,77.420013 554.991089,73.763870 
	C554.899902,66.993973 554.964966,60.221977 554.964966,53.247559 
	C552.097717,53.247559 549.867126,53.247559 547.686584,53.247559 
	C547.686584,61.255341 547.149231,69.059509 547.845154,76.752098 
	C548.478577,83.753120 553.852783,86.842262 562.669250,86.608810 
	C570.377075,86.404724 575.491333,82.590660 575.889832,75.830704 
	C576.327393,68.409004 575.989563,60.941586 575.989563,53.494087 
	C575.638733,53.167473 575.287903,52.840858 574.937073,52.514244 
	C574.003235,53.469482 572.708008,54.276264 572.237366,55.421848 
	C571.769470,56.560707 572.232117,58.049469 572.110779,59.368610 
	C571.494690,66.065468 570.821411,72.757050 569.740356,80.124466 
M780.046265,210.173431 
	C780.046265,206.894653 780.046265,203.615875 780.046265,200.197556 
	C783.825989,200.197556 787.075073,200.197556 790.632263,200.197556 
	C790.516174,198.792755 790.417480,197.599213 790.308533,196.280960 
	C786.806763,196.280960 783.688782,196.280960 780.320801,196.280960 
	C780.320801,193.033615 780.320801,189.971405 780.320801,186.787201 
	C783.883057,186.787201 787.155273,186.787201 790.665527,186.787201 
	C790.665527,185.405014 790.665527,184.190536 790.665527,183.029388 
	C784.516479,183.029388 778.596436,183.029388 772.706787,183.029388 
	C772.706787,194.078125 772.706787,204.810684 772.706787,215.659821 
	C778.920349,215.659821 784.819946,215.659821 790.966064,215.659821 
	C790.811890,214.119415 790.686829,212.869629 790.611572,212.117599 
	C786.850403,211.745483 783.507446,211.414749 780.046265,210.173431 
M561.143677,206.014572 
	C562.489929,207.311707 564.453186,208.366486 565.074402,209.948364 
	C567.622131,216.434952 567.471680,216.494049 575.549866,215.411957 
	C571.346680,204.856766 567.359619,194.353531 562.922363,184.044083 
	C561.804443,181.446732 558.968262,181.434738 557.745789,184.273529 
	C553.306580,194.582047 549.142700,205.009109 544.869324,215.405197 
	C548.175659,216.612869 550.195129,215.841751 550.598145,212.613327 
	C551.339417,206.675201 554.859924,205.019363 561.143677,206.014572 
M834.184692,142.677368 
	C833.082642,145.537155 831.980530,148.396957 830.862000,151.299515 
	C836.750732,153.190170 836.499695,148.589340 837.237488,145.834015 
	C838.265259,141.995834 840.663208,141.605484 843.947266,141.771118 
	C847.082581,141.929245 849.930420,141.365616 851.168152,145.735672 
	C853.085510,152.505341 853.440918,152.404678 861.314087,151.212814 
	C857.183899,140.818390 853.143311,130.504745 848.917236,120.267639 
	C848.548523,119.374458 846.902283,118.420593 845.953613,118.517212 
	C844.969177,118.617470 843.695923,119.783295 843.265137,120.789680 
	C840.257751,127.815308 837.436218,134.920486 834.184692,142.677368 
M818.473816,71.976013 
	C816.229126,66.273674 814.056213,60.541016 811.672913,54.897198 
	C811.249878,53.895370 809.883606,52.553234 809.074158,52.630962 
	C807.936401,52.740215 806.389893,53.799667 805.924561,54.853153 
	C803.047363,61.366596 800.415710,67.988823 797.720459,74.582245 
	C796.260071,78.154663 794.835266,81.741577 793.388550,85.336540 
	C797.324707,86.776054 798.404968,84.966423 799.149536,82.151199 
	C800.075928,78.648949 800.947388,75.662682 806.166565,75.834450 
	C811.046631,75.995056 813.494629,77.361008 814.251953,82.066467 
	C814.454224,83.322952 815.140503,84.501526 815.638794,85.805351 
	C818.366943,85.805351 820.966492,85.805351 823.971008,85.805351 
	C822.187195,81.254196 820.504395,76.960838 818.473816,71.976013 
M662.986145,206.012451 
	C666.520691,206.850510 671.359192,203.581223 673.103577,209.974747 
	C674.959229,216.775818 675.309753,216.680176 683.247314,215.289322 
	C679.110107,204.910995 675.041443,194.595490 670.828369,184.339325 
	C670.483582,183.499832 669.096680,182.499466 668.296692,182.581009 
	C667.234009,182.689346 665.743225,183.563934 665.348572,184.495682 
	C661.021240,194.711533 656.871704,205.002716 652.656555,215.315765 
	C656.031616,216.647491 657.520691,215.681961 658.464233,212.555573 
	C659.167053,210.226654 660.866089,208.198395 662.986145,206.012451 
M912.420654,54.633896 
	C912.094910,54.122852 911.776123,53.171566 911.442383,53.166271 
	C905.698669,53.075184 899.953064,53.100765 894.258057,53.100765 
	C894.258057,64.270317 894.258057,74.853500 894.258057,85.902504 
	C899.654968,85.902504 904.789429,86.092201 909.887451,85.746025 
	C910.935120,85.674889 911.846802,83.601135 913.482239,81.669724 
	C908.405273,81.669724 905.166870,81.669724 901.595337,81.669724 
	C901.595337,79.499687 901.595398,77.685211 901.595398,75.870735 
	C901.595398,74.111786 901.595337,72.352837 901.595337,70.197655 
	C904.445068,70.197655 906.609375,69.974602 908.709045,70.248352 
	C912.116211,70.692558 912.879211,69.441582 911.659729,66.243378 
	C908.398254,66.243378 905.179443,66.243378 902.071899,66.243378 
	C902.071899,62.771023 902.071899,59.744656 902.071899,56.859734 
	C904.376648,56.859734 906.219055,57.037003 908.008484,56.805210 
	C909.515320,56.610027 910.960571,55.939278 912.420654,54.633896 
M615.328857,186.545853 
	C620.490540,183.583755 624.721313,185.890594 629.316345,189.020004 
	C629.406433,186.959229 629.494995,184.330460 628.380920,183.638855 
	C619.560852,178.163422 605.007996,183.876068 602.060913,193.800186 
	C600.148254,200.240814 600.571106,206.501831 605.558533,211.432205 
	C610.983154,216.794754 617.770386,217.563644 625.030457,216.025818 
	C628.289795,215.335434 629.871277,213.663483 629.621643,209.937286 
	C627.968811,210.827850 626.605103,211.686462 625.145813,212.327194 
	C619.305908,214.891235 613.615479,212.782822 610.949768,207.134430 
	C607.936279,200.749146 609.551453,192.019897 615.328857,186.545853 
M775.825012,139.598557 
	C777.559631,150.572037 790.850098,155.321594 801.233521,151.200134 
	C802.662659,150.632858 803.390808,148.299469 804.443481,146.783722 
	C795.639343,150.309540 790.581604,150.140732 786.800293,145.622009 
	C782.719299,140.745117 782.602905,130.152344 786.917358,125.088829 
	C788.331726,123.428886 790.707825,121.449036 792.553101,121.536461 
	C796.216797,121.710037 799.817200,123.218346 803.468750,124.181664 
	C804.606323,119.882309 804.496704,119.659912 800.223206,118.515022 
	C785.588379,114.594261 774.408691,123.830643 775.825012,139.598557 
M623.186829,144.241852 
	C623.186829,141.641663 623.186829,139.041473 623.186829,136.199005 
	C627.138672,136.199005 630.405396,136.199005 633.984009,136.199005 
	C633.867371,134.731903 633.773010,133.544205 633.654846,132.057098 
	C630.012939,132.057098 626.768250,132.057098 623.479614,132.057098 
	C623.479614,128.762466 623.479614,125.848419 623.479614,122.718933 
	C627.043030,122.718933 630.314331,122.718933 633.861328,122.718933 
	C633.861328,121.404152 633.861328,120.187454 633.861328,118.864365 
	C627.833069,118.864365 622.062744,118.864365 616.321533,118.864365 
	C616.321533,129.865021 616.321533,140.595413 616.321533,151.668472 
	C621.626831,151.668472 626.608032,151.843124 631.558472,151.530045 
	C632.625977,151.462524 633.582336,149.636795 635.414246,147.789856 
	C631.108826,147.789856 628.599976,148.060120 626.198486,147.669693 
	C625.087219,147.489029 624.185486,146.020065 623.186829,144.241852 
M899.822876,193.682617 
	C898.941589,191.895218 898.043945,190.115646 897.181824,188.319031 
	C894.173462,182.050110 893.581116,181.791687 886.070923,183.747787 
	C891.170166,193.846878 898.934998,203.078369 895.604858,215.596771 
	C898.759094,215.596771 900.978088,215.596771 904.086365,215.596771 
	C900.687500,202.929291 907.171753,193.247559 913.779541,182.726334 
	C904.024048,183.137894 906.610413,193.119568 901.176086,196.028473 
	C900.825867,195.489288 900.467285,194.937256 899.822876,193.682617 
M653.590332,52.953770 
	C651.924988,52.953995 650.253662,53.044754 648.595581,52.935429 
	C645.232239,52.713669 645.137024,54.419903 645.919617,56.856636 
	C648.616211,56.856636 651.080872,56.856636 654.106323,56.856636 
	C654.106323,66.445045 654.106323,76.024033 654.106323,85.720947 
	C656.912537,85.720947 659.155701,85.720947 661.974182,85.720947 
	C661.974182,75.933266 661.974182,66.366676 661.974182,56.769295 
	C664.995300,56.769295 667.437744,56.769295 669.880127,56.769295 
	C670.124634,56.332691 670.369141,55.896084 670.613708,55.459480 
	C669.427856,54.624466 668.288208,53.160362 667.047852,53.069401 
	C662.906677,52.765713 658.729553,52.953842 653.590332,52.953770 
M893.360229,140.467896 
	C893.360229,144.067581 893.360229,147.667282 893.360229,151.487213 
	C899.732483,151.487213 905.475403,151.487213 911.469482,151.487213 
	C911.469482,150.122330 911.469482,148.920013 911.469482,147.618134 
	C907.985596,147.618134 904.708557,147.618134 900.867554,147.618134 
	C900.867554,138.105637 900.867554,128.565033 900.867554,119.021057 
	C898.186646,119.021057 896.078186,119.021057 893.360535,119.021057 
	C893.360535,125.969391 893.360535,132.724197 893.360229,140.467896 
M615.425293,85.910240 
	C617.878784,85.910240 620.332275,85.910240 623.197083,85.910240 
	C623.108704,84.170982 623.041321,82.843369 622.974243,81.522736 
	C619.386292,81.710457 616.297668,81.872047 612.632080,82.063828 
	C612.632080,72.206619 612.632080,62.828911 612.632080,53.230698 
	C609.848877,53.230698 607.629456,53.230698 605.291138,53.230698 
	C605.291138,64.150826 605.291138,74.829681 605.291138,85.909332 
	C608.556824,85.909332 611.512207,85.909332 615.425293,85.910240 
M852.824951,72.496201 
	C852.824951,76.912117 852.824951,81.328026 852.824951,85.644897 
	C855.580994,85.644897 857.645081,85.644897 860.143555,85.644897 
	C860.143555,75.832863 860.143555,66.276863 860.143555,56.722954 
	C863.167908,56.722954 865.741638,56.722954 868.315369,56.722954 
	C868.569092,56.285923 868.822876,55.848892 869.076599,55.411865 
	C867.988342,54.601982 866.923889,53.131786 865.807861,53.091549 
	C859.506653,52.864342 853.191833,53.056034 846.884216,52.948917 
	C843.492737,52.891327 843.591003,54.532524 844.419739,57.013672 
	C847.213196,56.868019 849.783264,56.734016 852.824890,56.575420 
	C852.824890,61.932026 852.824890,66.716423 852.824951,72.496201 
M696.534241,54.073967 
	C696.534241,64.628593 696.534241,75.183220 696.534241,85.736320 
	C699.214539,85.736320 701.311462,85.736320 703.606445,85.736320 
	C703.606445,74.801376 703.606445,64.095390 703.606445,52.971264 
	C701.200989,53.095173 699.100464,53.203373 696.534241,54.073967 
M742.166565,132.506210 
	C742.166565,128.083069 742.166565,123.659927 742.166565,119.122818 
	C739.527161,119.122818 737.469177,119.122818 735.260986,119.122818 
	C735.260986,129.996475 735.260986,140.678192 735.260986,151.518036 
	C737.577942,151.518036 739.628174,151.518036 742.166565,151.518036 
	C742.166565,145.347443 742.166565,139.425308 742.166565,132.506210 
z"/>
<path fill="#F3F9FB" opacity="1.000000" stroke="none" 
	d="
M989.827332,261.984375 
	C983.174866,261.174500 979.681458,257.629974 979.732239,252.163681 
	C979.776184,247.435425 983.225037,243.443909 987.778442,242.851608 
	C993.003479,242.171921 997.448608,245.135117 998.691895,250.126709 
	C1000.032471,255.509048 996.717346,260.145935 989.827332,261.984375 
M987.064453,255.572037 
	C988.466064,255.272995 990.332825,254.287689 991.154419,254.844528 
	C992.238708,255.579391 992.503174,257.523804 993.120056,258.948273 
	C994.098999,255.458725 994.634827,252.297852 994.400757,249.195068 
	C994.314331,248.049469 992.572083,246.436417 991.306824,246.107925 
	C989.303345,245.587769 987.065735,245.969315 984.353027,245.969315 
	C984.353027,249.738541 984.267761,253.188324 984.421997,256.627380 
	C984.454529,257.352570 985.365234,258.038361 985.871338,258.742279 
	C986.262695,257.958954 986.654053,257.175598 987.064453,255.572037 
z"/>
<path fill="#F7FCFD" opacity="1.000000" stroke="none" 
	d="
M277.502014,107.443451 
	C281.349457,96.936211 284.947021,86.750824 288.800629,76.663239 
	C289.315582,75.315247 291.107605,73.547653 292.340057,73.522346 
	C303.981049,73.283279 315.628906,73.380112 327.633484,73.380112 
	C327.633484,75.038170 327.633484,76.389709 327.633484,77.662186 
	C327.357239,77.846397 327.231262,78.000107 327.091797,78.013535 
	C313.612793,79.310379 313.012329,79.967102 313.012177,93.450539 
	C313.011871,119.945442 313.011841,146.440338 313.012085,172.935242 
	C313.012238,187.151413 313.586273,187.795166 327.699646,189.143906 
	C327.699646,190.490005 327.699646,191.860992 327.699646,193.621841 
	C311.265930,193.621841 295.126312,193.690872 278.990417,193.477936 
	C277.823700,193.462555 276.684052,191.394394 275.181519,189.942062 
	C276.859985,189.172394 277.145782,188.936111 277.443512,188.919968 
	C289.766266,188.251816 291.138916,186.844391 291.142792,174.682877 
	C291.151398,147.688065 291.144348,120.693268 291.143707,93.698463 
	C291.143646,92.075058 291.143707,90.451660 291.143707,88.828255 
	C290.855286,88.758560 290.566895,88.688866 290.278473,88.619179 
	C286.519714,98.808571 282.746399,108.992638 279.005035,119.188431 
	C270.360565,142.746094 261.748718,166.315750 253.054031,189.854828 
	C252.527176,191.281158 251.391617,192.482666 250.539276,193.788788 
	C249.536041,192.448639 248.144272,191.252365 247.586807,189.747116 
	C235.985870,158.423309 224.482269,127.063446 212.946655,95.715431 
	C212.348907,94.091042 211.637039,92.508659 210.175674,91.108162 
	C210.175674,106.516907 210.175674,121.925652 210.175659,137.334396 
	C210.175644,147.832382 210.175095,158.330353 210.175690,168.828339 
	C210.176498,183.609116 212.613159,186.616211 226.944733,189.301270 
	C226.944733,190.528473 226.944733,191.795990 226.944733,193.345200 
	C214.643814,193.345200 202.551086,193.345200 190.514679,193.345200 
	C189.091812,190.114044 190.381592,188.923416 193.451004,188.151642 
	C200.756577,186.314743 203.951538,182.755936 204.088562,175.084412 
	C204.433701,155.763214 204.350464,136.434174 204.413101,117.108192 
	C204.443893,107.610123 204.420334,98.111862 204.415909,88.613693 
	C204.412369,80.994385 203.686234,80.120384 196.275452,78.793144 
	C194.644653,78.501076 193.010483,78.227867 191.258652,77.925400 
	C190.304199,74.995621 190.587128,73.264366 194.421951,73.323288 
	C204.417664,73.476860 214.421936,73.548248 224.412857,73.280663 
	C227.899261,73.187294 228.442719,75.236610 229.319901,77.637344 
	C238.500641,102.764313 247.725204,127.875275 256.945251,152.987869 
	C257.441132,154.338593 258.004639,155.664490 259.048370,158.288269 
	C265.419373,140.694275 271.375824,124.245102 277.502014,107.443451 
z"/>
<path fill="#F7FCFD" opacity="1.000000" stroke="none" 
	d="
M342.752991,185.953796 
	C346.238495,181.578430 350.409637,177.811432 352.388977,173.119720 
	C363.173004,147.557907 373.500275,121.801208 383.698547,95.998459 
	C384.567993,93.798691 383.340820,90.770264 383.000061,87.212517 
	C387.307251,82.479706 392.421326,76.860252 398.067261,70.656418 
	C399.162018,72.782684 400.203583,74.557091 401.020630,76.429474 
	C415.643524,109.939209 430.300323,143.434433 444.786102,177.003448 
	C447.492035,183.274155 451.174408,187.725800 458.403625,188.631851 
	C459.648712,188.787903 460.645020,190.928802 461.756226,192.152863 
	C461.417694,192.548813 461.079163,192.944778 460.740631,193.340729 
	C443.808350,193.340729 426.876099,193.340729 409.430450,193.340729 
	C409.279022,192.142822 409.109253,190.799805 408.928955,189.373413 
	C409.699097,189.125626 410.132019,188.926270 410.585602,188.850510 
	C412.876251,188.468063 415.242126,188.354523 417.450958,187.703506 
	C421.251465,186.583344 423.121216,183.668961 421.758514,180.004303 
	C419.156372,173.006714 416.069427,166.180084 412.909943,159.410248 
	C412.491364,158.513367 410.475006,157.942459 409.193176,157.932724 
	C395.534576,157.829117 381.873871,157.795288 368.217102,157.984161 
	C366.845612,158.003143 364.782532,159.306839 364.259705,160.533829 
	C361.984650,165.873276 359.930176,171.334366 358.230438,176.884460 
	C356.010193,184.134003 357.902496,186.988464 365.316925,188.449997 
	C366.749908,188.732468 368.208557,188.884811 369.810547,189.119965 
	C369.810547,190.549118 369.810547,191.831451 369.810547,193.369980 
	C358.375854,193.369980 347.108551,193.369980 335.791229,193.369980 
	C334.264526,190.345657 335.170868,188.681122 338.305695,187.870926 
	C339.733582,187.501892 341.056427,186.726440 342.752991,185.953796 
M394.491333,151.831619 
	C399.218933,151.831619 403.946503,151.831619 409.366486,151.831619 
	C401.990753,134.711334 394.976776,118.430687 387.571686,101.242195 
	C380.582184,118.596527 374.042816,134.833206 367.196716,151.831528 
	C376.616028,151.831528 385.054993,151.831528 394.491333,151.831619 
z"/>
<path fill="#F7FCFD" opacity="1.000000" stroke="none" 
	d="
M116.932259,195.852448 
	C109.508080,195.194519 102.434715,195.170120 95.650612,193.757034 
	C77.045624,189.881760 65.625381,176.598541 65.085411,157.564178 
	C64.509155,137.250397 64.894966,116.909882 64.797379,96.581352 
	C64.783836,93.762711 64.549820,90.926331 64.168869,88.132103 
	C63.335278,82.017883 61.064259,79.757187 55.307686,78.192131 
	C53.893497,77.807648 52.786816,76.292107 51.538761,75.296555 
	C51.827534,74.823997 52.116310,74.351433 52.405083,73.878876 
	C53.333763,73.711403 54.262131,73.400032 55.191166,73.398041 
	C69.189026,73.368011 83.187485,73.442520 97.184540,73.331978 
	C100.425179,73.306381 101.995377,74.119713 100.803375,77.707619 
	C100.404335,77.846397 99.962105,78.118263 99.507393,78.141060 
	C88.271568,78.704208 86.445213,79.896049 86.338989,90.945534 
	C86.121284,113.592453 85.849228,136.282593 86.971619,158.886795 
	C88.178162,183.186066 103.547981,194.699738 127.614937,190.444122 
	C133.574158,189.390396 139.649292,187.420013 144.946732,184.539017 
	C154.529434,179.327438 159.845413,170.618607 159.992661,159.657410 
	C160.301514,136.665604 160.195999,113.666313 160.052399,90.671387 
	C160.003738,82.881004 156.712173,79.515373 149.066360,78.394936 
	C147.432770,78.155548 145.771957,78.101921 142.260605,77.805374 
	C144.045898,75.762474 145.061478,73.565514 146.126221,73.541420 
	C157.258423,73.289513 168.398514,73.385994 179.763855,73.385994 
	C179.763855,75.074997 179.763855,76.331322 179.763855,77.665619 
	C179.195663,77.855568 178.754242,78.106392 178.296555,78.140884 
	C169.139648,78.830826 166.386002,81.678635 166.197311,90.985939 
	C166.082504,96.649452 166.176208,102.317169 166.175110,107.983002 
	C166.172028,123.980606 166.391739,139.982162 166.109222,155.974823 
	C165.744339,176.630753 155.712387,189.030289 135.702652,193.559708 
	C129.739349,194.909576 123.518105,195.119980 116.932259,195.852448 
z"/>
<path fill="#DDE9EE" opacity="1.000000" stroke="none" 
	d="
M637.000244,98.736786 
	C731.121399,98.737106 824.742493,98.737106 918.612915,98.737106 
	C918.697021,100.490608 918.758057,101.762085 918.836243,103.391281 
	C793.319336,103.391281 668.081055,103.391281 542.353638,103.391281 
	C542.220215,102.182625 542.070068,100.822273 541.839844,98.736465 
	C573.680115,98.736465 605.090210,98.736465 637.000244,98.736786 
z"/>
<path fill="#F2F3F5" opacity="1.000000" stroke="none" 
	d="
M541.980713,169.088776 
	C542.044250,167.810242 542.107727,166.531708 542.190430,164.866165 
	C544.144104,164.866165 545.779846,164.866165 547.415527,164.866165 
	C669.376892,164.866272 791.338257,164.857773 913.299561,164.936584 
	C915.433472,164.937958 919.192261,163.131485 918.495789,168.616943 
	C914.474792,169.311874 910.817932,169.511444 907.161072,169.511948 
	C789.081970,169.528275 671.002930,169.529312 552.923828,169.507050 
	C549.276123,169.506363 545.628418,169.234299 541.980713,169.088776 
z"/>
<path fill="#F4F8FB" opacity="1.000000" stroke="none" 
	d="
M732.909790,71.722115 
	C733.773621,65.371300 734.597900,59.460762 735.414307,53.607094 
	C738.500732,52.272137 740.007690,53.264221 741.280579,56.111713 
	C744.034607,62.272755 747.188660,68.254982 750.262146,74.478600 
	C756.304443,67.670708 756.722778,57.508816 765.614075,51.516552 
	C767.181519,63.917557 768.545898,74.712181 769.940979,85.749664 
	C767.350037,85.749664 765.062500,85.749664 762.271301,85.749664 
	C761.572510,79.416435 760.851074,72.877731 760.129639,66.339027 
	C759.829468,66.233147 759.529236,66.127274 759.229065,66.021400 
	C755.925476,72.679581 752.621948,79.337769 748.574341,87.495506 
	C744.614136,79.610298 741.279419,72.970619 737.944763,66.330948 
	C737.625854,66.377480 737.306946,66.424019 736.988037,66.470558 
	C736.508667,71.807381 736.068909,77.148163 735.535339,82.479561 
	C735.206543,85.765617 735.142273,85.759186 730.763550,85.355400 
	C731.468140,80.942635 732.169189,76.552513 732.909790,71.722115 
z"/>
<path fill="#F3F8FA" opacity="1.000000" stroke="none" 
	d="
M823.168579,195.181946 
	C823.796997,190.976105 824.362915,187.207840 824.919739,183.500076 
	C828.037720,182.007156 829.520996,183.231766 830.771912,185.986557 
	C833.552124,192.108887 836.624512,198.098541 840.042175,205.092529 
	C843.558289,198.056137 846.735657,192.104935 849.507812,185.970612 
	C850.805420,183.099106 852.356201,182.146469 855.411499,183.467926 
	C856.714478,194.078964 858.023926,204.742798 859.366516,215.676453 
	C856.758484,215.676453 854.485168,215.676453 851.637451,215.676453 
	C850.976196,209.138214 850.306152,202.512817 849.636047,195.887405 
	C849.346985,195.805374 849.057922,195.723328 848.768799,195.641281 
	C845.408142,202.449875 842.047485,209.258469 838.030884,217.395935 
	C834.116577,209.580841 830.856934,203.072739 827.597290,196.564651 
	C827.206543,196.641861 826.815857,196.719070 826.425110,196.796280 
	C825.808167,202.987732 825.191162,209.179199 824.551147,215.602463 
	C823.103088,215.602463 821.726318,215.602463 820.224731,215.602463 
	C821.214722,208.736618 822.160400,202.178070 823.168579,195.181946 
z"/>
<path fill="#F3F8FA" opacity="1.000000" stroke="none" 
	d="
M571.055298,130.026337 
	C572.437134,127.148972 573.435547,124.450653 575.010437,122.146431 
	C576.113037,120.533257 578.003174,119.458397 580.509338,117.315811 
	C582.092712,129.918304 583.432983,140.586075 584.810303,151.548462 
	C582.238281,151.548462 579.826965,151.548462 577.092651,151.548462 
	C576.382812,144.885956 575.683167,138.318878 574.831726,130.326660 
	C570.908325,138.254517 567.542358,145.055984 563.401855,153.422592 
	C559.445007,145.409241 556.163452,138.763535 552.881897,132.117813 
	C552.568542,132.194717 552.255127,132.271622 551.941772,132.348541 
	C551.368713,137.722885 550.822144,143.100250 550.212158,148.470398 
	C549.871460,151.469604 549.823975,151.464218 545.717346,151.481812 
	C547.245239,140.805954 548.760498,130.217987 550.296448,119.485924 
	C553.071289,118.188210 554.763428,118.897903 556.071594,121.744850 
	C558.907104,127.915855 562.002441,133.967499 565.368469,140.837280 
	C567.457031,136.899323 569.187561,133.636505 571.055298,130.026337 
z"/>
<path fill="#F4F8FB" opacity="1.000000" stroke="none" 
	d="
M669.815186,145.863785 
	C669.815613,136.600189 669.815613,127.818481 669.815613,118.612808 
	C675.141174,118.612808 679.945801,118.529968 684.746582,118.630089 
	C694.695007,118.837555 700.088074,123.602150 700.848816,132.716751 
	C701.645935,142.266983 695.925537,150.225113 686.711365,151.348953 
	C681.339661,152.004105 675.822754,151.468231 669.814697,151.468231 
	C669.814697,149.570236 669.814697,147.957962 669.815186,145.863785 
M692.260925,130.951004 
	C690.495361,123.077309 685.932373,120.436127 677.445923,122.478371 
	C677.445923,131.004730 677.445923,139.559052 677.445923,148.062698 
	C686.924927,149.657349 691.775391,145.942551 692.395264,136.816315 
	C692.507629,135.162460 692.398560,133.493561 692.260925,130.951004 
z"/>
<path fill="#F7FAFC" opacity="1.000000" stroke="none" 
	d="
M736.551514,185.180145 
	C743.177734,190.461426 743.941833,197.132996 741.878418,204.306580 
	C739.928101,211.086792 734.877930,214.821854 728.082886,215.542587 
	C722.875366,216.094940 717.562256,215.652512 712.284546,215.652512 
	C712.096252,214.940979 711.868469,214.479874 711.867554,214.018295 
	C711.847229,203.885300 711.852051,193.752258 711.852051,182.790405 
	C720.094604,183.424927 728.337341,181.027283 736.551514,185.180145 
M728.725342,211.578079 
	C734.059937,207.396042 736.233582,198.409851 733.507507,191.807846 
	C731.453979,186.834671 727.252075,185.199890 719.445557,186.470505 
	C719.445557,195.130020 719.445557,203.827927 719.445557,213.212891 
	C722.551086,212.723526 725.271790,212.294815 728.725342,211.578079 
z"/>
<path fill="#EDF5F9" opacity="1.000000" stroke="none" 
	d="
M569.954224,79.787476 
	C570.821411,72.757050 571.494690,66.065468 572.110779,59.368610 
	C572.232117,58.049469 571.769470,56.560707 572.237366,55.421848 
	C572.708008,54.276264 574.003235,53.469482 574.937073,52.514244 
	C575.287903,52.840858 575.638733,53.167473 575.989563,53.494087 
	C575.989563,60.941586 576.327393,68.409004 575.889832,75.830704 
	C575.491333,82.590660 570.377075,86.404724 562.669250,86.608810 
	C553.852783,86.842262 548.478577,83.753120 547.845154,76.752098 
	C547.149231,69.059509 547.686584,61.255341 547.686584,53.247559 
	C549.867126,53.247559 552.097717,53.247559 554.964966,53.247559 
	C554.964966,60.221977 554.899902,66.993973 554.991089,73.763870 
	C555.040344,77.420013 556.008850,80.807556 559.782288,82.339767 
	C563.513611,83.854874 566.951416,83.245956 569.954224,79.787476 
z"/>
<path fill="#ECF4F8" opacity="1.000000" stroke="none" 
	d="
M780.105347,210.628723 
	C783.507446,211.414749 786.850403,211.745483 790.611572,212.117599 
	C790.686829,212.869629 790.811890,214.119415 790.966064,215.659821 
	C784.819946,215.659821 778.920349,215.659821 772.706787,215.659821 
	C772.706787,204.810684 772.706787,194.078125 772.706787,183.029388 
	C778.596436,183.029388 784.516479,183.029388 790.665527,183.029388 
	C790.665527,184.190536 790.665527,185.405014 790.665527,186.787201 
	C787.155273,186.787201 783.883057,186.787201 780.320801,186.787201 
	C780.320801,189.971405 780.320801,193.033615 780.320801,196.280960 
	C783.688782,196.280960 786.806763,196.280960 790.308533,196.280960 
	C790.417480,197.599213 790.516174,198.792755 790.632263,200.197556 
	C787.075073,200.197556 783.825989,200.197556 780.046265,200.197556 
	C780.046265,203.615875 780.046265,206.894653 780.105347,210.628723 
z"/>
<path fill="#F2F7FA" opacity="1.000000" stroke="none" 
	d="
M560.702515,206.013824 
	C554.859924,205.019363 551.339417,206.675201 550.598145,212.613327 
	C550.195129,215.841751 548.175659,216.612869 544.869324,215.405197 
	C549.142700,205.009109 553.306580,194.582047 557.745789,184.273529 
	C558.968262,181.434738 561.804443,181.446732 562.922363,184.044083 
	C567.359619,194.353531 571.346680,204.856766 575.549866,215.411957 
	C567.471680,216.494049 567.622131,216.434952 565.074402,209.948364 
	C564.453186,208.366486 562.489929,207.311707 560.702515,206.013824 
M556.530334,197.226135 
	C555.917908,198.897308 555.305481,200.568481 554.545654,202.641754 
	C557.373108,202.641754 559.613281,202.641754 562.577515,202.641754 
	C561.237244,199.206558 560.053284,196.171951 558.553711,192.328552 
	C557.724854,194.382309 557.292175,195.454437 556.530334,197.226135 
z"/>
<path fill="#F1F7FA" opacity="1.000000" stroke="none" 
	d="
M834.369934,142.338776 
	C837.436218,134.920486 840.257751,127.815308 843.265137,120.789680 
	C843.695923,119.783295 844.969177,118.617470 845.953613,118.517212 
	C846.902283,118.420593 848.548523,119.374458 848.917236,120.267639 
	C853.143311,130.504745 857.183899,140.818390 861.314087,151.212814 
	C853.440918,152.404678 853.085510,152.505341 851.168152,145.735672 
	C849.930420,141.365616 847.082581,141.929245 843.947266,141.771118 
	C840.663208,141.605484 838.265259,141.995834 837.237488,145.834015 
	C836.499695,148.589340 836.750732,153.190170 830.862000,151.299515 
	C831.980530,148.396957 833.082642,145.537155 834.369934,142.338776 
M845.920227,131.776657 
	C845.501282,130.888748 845.082336,130.000824 844.330627,128.407837 
	C842.858032,132.072800 841.611816,135.174286 840.295105,138.451172 
	C843.163269,138.451172 845.504150,138.451172 848.288330,138.451172 
	C847.449585,136.149765 846.787048,134.331863 845.920227,131.776657 
z"/>
<path fill="#F2F7FA" opacity="1.000000" stroke="none" 
	d="
M818.647705,72.321747 
	C820.504395,76.960838 822.187195,81.254196 823.971008,85.805351 
	C820.966492,85.805351 818.366943,85.805351 815.638794,85.805351 
	C815.140503,84.501526 814.454224,83.322952 814.251953,82.066467 
	C813.494629,77.361008 811.046631,75.995056 806.166565,75.834450 
	C800.947388,75.662682 800.075928,78.648949 799.149536,82.151199 
	C798.404968,84.966423 797.324707,86.776054 793.388550,85.336540 
	C794.835266,81.741577 796.260071,78.154663 797.720459,74.582245 
	C800.415710,67.988823 803.047363,61.366596 805.924561,54.853153 
	C806.389893,53.799667 807.936401,52.740215 809.074158,52.630962 
	C809.883606,52.553234 811.249878,53.895370 811.672913,54.897198 
	C814.056213,60.541016 816.229126,66.273674 818.647705,72.321747 
M805.773376,65.129471 
	C804.804138,67.526917 803.834900,69.924362 802.715576,72.693192 
	C805.702637,72.693192 807.985352,72.693192 811.761108,72.693192 
	C809.482178,69.372513 807.767578,66.874077 805.773376,65.129471 
z"/>
<path fill="#F3F8FA" opacity="1.000000" stroke="none" 
	d="
M662.553833,206.024353 
	C660.866089,208.198395 659.167053,210.226654 658.464233,212.555573 
	C657.520691,215.681961 656.031616,216.647491 652.656555,215.315765 
	C656.871704,205.002716 661.021240,194.711533 665.348572,184.495682 
	C665.743225,183.563934 667.234009,182.689346 668.296692,182.581009 
	C669.096680,182.499466 670.483582,183.499832 670.828369,184.339325 
	C675.041443,194.595490 679.110107,204.910995 683.247314,215.289322 
	C675.309753,216.680176 674.959229,216.775818 673.103577,209.974747 
	C671.359192,203.581223 666.520691,206.850510 662.553833,206.024353 
M668.915588,198.758636 
	C668.140991,196.930405 667.366394,195.102173 666.210754,192.374664 
	C664.600525,196.375717 663.387451,199.389847 662.085510,202.624832 
	C664.984680,202.624832 667.381104,202.624832 670.159302,202.624832 
	C669.735779,201.338989 669.435242,200.426636 668.915588,198.758636 
z"/>
<path fill="#EEF5F9" opacity="1.000000" stroke="none" 
	d="
M912.426880,55.056473 
	C910.960571,55.939278 909.515320,56.610027 908.008484,56.805210 
	C906.219055,57.037003 904.376648,56.859734 902.071899,56.859734 
	C902.071899,59.744656 902.071899,62.771023 902.071899,66.243378 
	C905.179443,66.243378 908.398254,66.243378 911.659729,66.243378 
	C912.879211,69.441582 912.116211,70.692558 908.709045,70.248352 
	C906.609375,69.974602 904.445068,70.197655 901.595337,70.197655 
	C901.595337,72.352837 901.595398,74.111786 901.595398,75.870735 
	C901.595398,77.685211 901.595337,79.499687 901.595337,81.669724 
	C905.166870,81.669724 908.405273,81.669724 913.482239,81.669724 
	C911.846802,83.601135 910.935120,85.674889 909.887451,85.746025 
	C904.789429,86.092201 899.654968,85.902504 894.258057,85.902504 
	C894.258057,74.853500 894.258057,64.270317 894.258057,53.100765 
	C899.953064,53.100765 905.698669,53.075184 911.442383,53.166271 
	C911.776123,53.171566 912.094910,54.122852 912.426880,55.056473 
z"/>
<path fill="#EDF4F8" opacity="1.000000" stroke="none" 
	d="
M615.005493,186.754196 
	C609.551453,192.019897 607.936279,200.749146 610.949768,207.134430 
	C613.615479,212.782822 619.305908,214.891235 625.145813,212.327194 
	C626.605103,211.686462 627.968811,210.827850 629.621643,209.937286 
	C629.871277,213.663483 628.289795,215.335434 625.030457,216.025818 
	C617.770386,217.563644 610.983154,216.794754 605.558533,211.432205 
	C600.571106,206.501831 600.148254,200.240814 602.060913,193.800186 
	C605.007996,183.876068 619.560852,178.163422 628.380920,183.638855 
	C629.494995,184.330460 629.406433,186.959229 629.316345,189.020004 
	C624.721313,185.890594 620.490540,183.583755 615.005493,186.754196 
z"/>
<path fill="#EDF4F8" opacity="1.000000" stroke="none" 
	d="
M775.742126,139.203842 
	C774.408691,123.830643 785.588379,114.594261 800.223206,118.515022 
	C804.496704,119.659912 804.606323,119.882309 803.468750,124.181664 
	C799.817200,123.218346 796.216797,121.710037 792.553101,121.536461 
	C790.707825,121.449036 788.331726,123.428886 786.917358,125.088829 
	C782.602905,130.152344 782.719299,140.745117 786.800293,145.622009 
	C790.581604,150.140732 795.639343,150.309540 804.443481,146.783722 
	C803.390808,148.299469 802.662659,150.632858 801.233521,151.200134 
	C790.850098,155.321594 777.559631,150.572037 775.742126,139.203842 
z"/>
<path fill="#F2F7FA" opacity="1.000000" stroke="none" 
	d="
M623.187744,144.688507 
	C624.185486,146.020065 625.087219,147.489029 626.198486,147.669693 
	C628.599976,148.060120 631.108826,147.789856 635.414246,147.789856 
	C633.582336,149.636795 632.625977,151.462524 631.558472,151.530045 
	C626.608032,151.843124 621.626831,151.668472 616.321533,151.668472 
	C616.321533,140.595413 616.321533,129.865021 616.321533,118.864365 
	C622.062744,118.864365 627.833069,118.864365 633.861328,118.864365 
	C633.861328,120.187454 633.861328,121.404152 633.861328,122.718933 
	C630.314331,122.718933 627.043030,122.718933 623.479614,122.718933 
	C623.479614,125.848419 623.479614,128.762466 623.479614,132.057098 
	C626.768250,132.057098 630.012939,132.057098 633.654846,132.057098 
	C633.773010,133.544205 633.867371,134.731903 633.984009,136.199005 
	C630.405396,136.199005 627.138672,136.199005 623.186829,136.199005 
	C623.186829,139.041473 623.186829,141.641663 623.187744,144.688507 
z"/>
<path fill="#005F9F" opacity="1.000000" stroke="none" 
	d="
M542.100586,169.470398 
	C545.628418,169.234299 549.276123,169.506363 552.923828,169.507050 
	C671.002930,169.529312 789.081970,169.528275 907.161072,169.511948 
	C910.817932,169.511444 914.474792,169.311874 918.543152,169.037399 
	C918.200562,169.571213 917.550171,170.633728 916.667419,170.887177 
	C915.433655,171.241409 914.026489,170.999710 912.693542,170.999725 
	C791.218079,171.001022 669.742676,171.006622 548.267212,170.953400 
	C546.251465,170.952515 544.236023,170.235092 542.100586,169.470398 
z"/>
<path fill="#F1F7FA" opacity="1.000000" stroke="none" 
	d="
M899.965820,194.033936 
	C900.467285,194.937256 900.825867,195.489288 901.176086,196.028473 
	C906.610413,193.119568 904.024048,183.137894 913.779541,182.726334 
	C907.171753,193.247559 900.687500,202.929291 904.086365,215.596771 
	C900.978088,215.596771 898.759094,215.596771 895.604858,215.596771 
	C898.934998,203.078369 891.170166,193.846878 886.070923,183.747787 
	C893.581116,181.791687 894.173462,182.050110 897.181824,188.319031 
	C898.043945,190.115646 898.941589,191.895218 899.965820,194.033936 
z"/>
<path fill="#EDF4F8" opacity="1.000000" stroke="none" 
	d="
M654.078247,52.953659 
	C658.729553,52.953842 662.906677,52.765713 667.047852,53.069401 
	C668.288208,53.160362 669.427856,54.624466 670.613708,55.459480 
	C670.369141,55.896084 670.124634,56.332691 669.880127,56.769295 
	C667.437744,56.769295 664.995300,56.769295 661.974182,56.769295 
	C661.974182,66.366676 661.974182,75.933266 661.974182,85.720947 
	C659.155701,85.720947 656.912537,85.720947 654.106323,85.720947 
	C654.106323,76.024033 654.106323,66.445045 654.106323,56.856636 
	C651.080872,56.856636 648.616211,56.856636 645.919617,56.856636 
	C645.137024,54.419903 645.232239,52.713669 648.595581,52.935429 
	C650.253662,53.044754 651.924988,52.953995 654.078247,52.953659 
z"/>
<path fill="#E3EFF5" opacity="1.000000" stroke="none" 
	d="
M893.360352,139.973450 
	C893.360535,132.724197 893.360535,125.969391 893.360535,119.021057 
	C896.078186,119.021057 898.186646,119.021057 900.867554,119.021057 
	C900.867554,128.565033 900.867554,138.105637 900.867554,147.618134 
	C904.708557,147.618134 907.985596,147.618134 911.469482,147.618134 
	C911.469482,148.920013 911.469482,150.122330 911.469482,151.487213 
	C905.475403,151.487213 899.732483,151.487213 893.360229,151.487213 
	C893.360229,147.667282 893.360229,144.067581 893.360352,139.973450 
z"/>
<path fill="#ECF4F8" opacity="1.000000" stroke="none" 
	d="
M614.946411,85.909790 
	C611.512207,85.909332 608.556824,85.909332 605.291138,85.909332 
	C605.291138,74.829681 605.291138,64.150826 605.291138,53.230698 
	C607.629456,53.230698 609.848877,53.230698 612.632080,53.230698 
	C612.632080,62.828911 612.632080,72.206619 612.632080,82.063828 
	C616.297668,81.872047 619.386292,81.710457 622.974243,81.522736 
	C623.041321,82.843369 623.108704,84.170982 623.197083,85.910240 
	C620.332275,85.910240 617.878784,85.910240 614.946411,85.909790 
z"/>
<path fill="#F7FAFC" opacity="1.000000" stroke="none" 
	d="
M852.824951,71.998512 
	C852.824890,66.716423 852.824890,61.932026 852.824890,56.575420 
	C849.783264,56.734016 847.213196,56.868019 844.419739,57.013672 
	C843.591003,54.532524 843.492737,52.891327 846.884216,52.948917 
	C853.191833,53.056034 859.506653,52.864342 865.807861,53.091549 
	C866.923889,53.131786 867.988342,54.601982 869.076599,55.411865 
	C868.822876,55.848892 868.569092,56.285923 868.315369,56.722954 
	C865.741638,56.722954 863.167908,56.722954 860.143555,56.722954 
	C860.143555,66.276863 860.143555,75.832863 860.143555,85.644897 
	C857.645081,85.644897 855.580994,85.644897 852.824951,85.644897 
	C852.824951,81.328026 852.824951,76.912117 852.824951,71.998512 
z"/>
<path fill="#E5F0F6" opacity="1.000000" stroke="none" 
	d="
M696.767090,53.692768 
	C699.100464,53.203373 701.200989,53.095173 703.606445,52.971264 
	C703.606445,64.095390 703.606445,74.801376 703.606445,85.736320 
	C701.311462,85.736320 699.214539,85.736320 696.534241,85.736320 
	C696.534241,75.183220 696.534241,64.628593 696.767090,53.692768 
z"/>
<path fill="#FBFDFE" opacity="1.000000" stroke="none" 
	d="
M742.166565,133.004684 
	C742.166565,139.425308 742.166565,145.347443 742.166565,151.518036 
	C739.628174,151.518036 737.577942,151.518036 735.260986,151.518036 
	C735.260986,140.678192 735.260986,129.996475 735.260986,119.122818 
	C737.469177,119.122818 739.527161,119.122818 742.166565,119.122818 
	C742.166565,123.659927 742.166565,128.083069 742.166565,133.004684 
z"/>
<path fill="#24A4D0" opacity="1.000000" stroke="none" 
	d="
M987.054932,255.982147 
	C986.654053,257.175598 986.262695,257.958954 985.871338,258.742279 
	C985.365234,258.038361 984.454529,257.352570 984.421997,256.627380 
	C984.267761,253.188324 984.353027,249.738541 984.353027,245.969315 
	C987.065735,245.969315 989.303345,245.587769 991.306824,246.107925 
	C992.572083,246.436417 994.314331,248.049469 994.400757,249.195068 
	C994.634827,252.297852 994.098999,255.458725 993.120056,258.948273 
	C992.503174,257.523804 992.238708,255.579391 991.154419,254.844528 
	C990.332825,254.287689 988.466064,255.272995 987.054932,255.982147 
z"/>
<path fill="#0697C9" opacity="1.000000" stroke="none" 
	d="
M393.992645,151.831573 
	C385.054993,151.831528 376.616028,151.831528 367.196716,151.831528 
	C374.042816,134.833206 380.582184,118.596527 387.571686,101.242195 
	C394.976776,118.430687 401.990753,134.711334 409.366486,151.831619 
	C403.946503,151.831619 399.218933,151.831619 393.992645,151.831573 
z"/>
<path fill="#0B71AA" opacity="1.000000" stroke="none" 
	d="
M692.326294,131.391296 
	C692.398560,133.493561 692.507629,135.162460 692.395264,136.816315 
	C691.775391,145.942551 686.924927,149.657349 677.445923,148.062698 
	C677.445923,139.559052 677.445923,131.004730 677.445923,122.478371 
	C685.932373,120.436127 690.495361,123.077309 692.326294,131.391296 
z"/>
<path fill="#0B71AA" opacity="1.000000" stroke="none" 
	d="
M728.358887,211.722076 
	C725.271790,212.294815 722.551086,212.723526 719.445557,213.212891 
	C719.445557,203.827927 719.445557,195.130020 719.445557,186.470505 
	C727.252075,185.199890 731.453979,186.834671 733.507507,191.807846 
	C736.233582,198.409851 734.059937,207.396042 728.358887,211.722076 
z"/>
<path fill="#1676AD" opacity="1.000000" stroke="none" 
	d="
M556.694946,196.876358 
	C557.292175,195.454437 557.724854,194.382309 558.553711,192.328552 
	C560.053284,196.171951 561.237244,199.206558 562.577515,202.641754 
	C559.613281,202.641754 557.373108,202.641754 554.545654,202.641754 
	C555.305481,200.568481 555.917908,198.897308 556.694946,196.876358 
z"/>
<path fill="#1E7BAF" opacity="1.000000" stroke="none" 
	d="
M846.022339,132.145325 
	C846.787048,134.331863 847.449585,136.149765 848.288330,138.451172 
	C845.504150,138.451172 843.163269,138.451172 840.295105,138.451172 
	C841.611816,135.174286 842.858032,132.072800 844.330627,128.407837 
	C845.082336,130.000824 845.501282,130.888748 846.022339,132.145325 
z"/>
<path fill="#1E7BAF" opacity="1.000000" stroke="none" 
	d="
M805.913208,64.752548 
	C807.767578,66.874077 809.482178,69.372513 811.761108,72.693192 
	C807.985352,72.693192 805.702637,72.693192 802.715576,72.693192 
	C803.834900,69.924362 804.804138,67.526917 805.913208,64.752548 
z"/>
<path fill="#1E7BAF" opacity="1.000000" stroke="none" 
	d="
M669.025146,199.136475 
	C669.435242,200.426636 669.735779,201.338989 670.159302,202.624832 
	C667.381104,202.624832 664.984680,202.624832 662.085510,202.624832 
	C663.387451,199.389847 664.600525,196.375717 666.210754,192.374664 
	C667.366394,195.102173 668.140991,196.930405 669.025146,199.136475 
z"/>
</svg>