<svg version="1.1" id="Layer_1" xmlns="http://www.w3.org/2000/svg" xmlns:xlink="http://www.w3.org/1999/xlink" x="0px" y="0px"
	 width="100%" viewBox="0 0 400 360" enable-background="new 0 0 400 360" xml:space="preserve">
<path fill="#F1F4F5" opacity="1.000000" stroke="none" 
	d="
M380.000000,361.000000 
	C260.977997,361.000000 141.955978,361.000000 22.577238,360.751587 
	C22.231611,360.322357 22.242716,360.141510 22.375198,359.843079 
	C22.353514,359.486603 22.210455,359.247742 21.969969,358.548523 
	C21.865879,240.881119 21.858597,123.674034 21.861456,6.466948 
	C21.861485,5.308389 21.995777,4.149832 22.221109,2.919360 
	C22.448380,2.762969 22.600868,2.645938 22.581785,2.599659 
	C22.500051,2.401458 22.367764,2.224106 22.237213,1.767933 
	C22.147017,1.331143 22.073509,1.165571 22.000000,1.000000 
	C141.022018,1.000000 260.044037,1.000000 379.542603,1.250347 
	C380.010651,1.667498 380.002136,1.834301 379.847107,2.134367 
	C379.928619,2.472624 380.156738,2.677618 380.514893,3.277273 
	C380.656372,121.168068 380.668488,238.664200 380.667023,356.160339 
	C380.667023,357.146210 380.482971,358.132050 380.185486,359.146851 
	C379.867798,359.232819 379.749420,359.289886 379.631073,359.346954 
	C379.751923,359.564301 379.872772,359.781616 380.006409,360.249115 
	C380.012817,360.666168 380.006409,360.833069 380.000000,361.000000 
M246.500000,347.986053 
	C286.897491,347.986053 327.294983,347.986053 367.680237,347.986053 
	C367.680237,286.270905 367.680237,225.348450 367.680237,164.210449 
	C256.589081,164.210449 145.739975,164.210449 34.783928,164.210449 
	C34.783928,225.573944 34.783928,286.640961 34.783928,347.986023 
	C105.234238,347.986023 175.367111,347.986023 246.500000,347.986053 
M345.499969,157.172821 
	C352.906586,157.172821 360.313171,157.172821 367.651428,157.172821 
	C367.651428,109.050430 367.651428,61.784039 367.651428,14.267763 
	C256.648346,14.267763 145.910858,14.267763 34.883430,14.267763 
	C34.883430,61.875134 34.883430,109.259003 34.883430,157.172928 
	C138.270325,157.172928 241.385162,157.172928 345.499969,157.172821 
z"/>
<path fill="#030303" opacity="1.000000" stroke="none" 
	d="
M22.253820,359.960663 
	C22.242716,360.141510 22.231611,360.322357 22.110252,360.751587 
	C15.007632,361.000000 8.015265,361.000000 1.042027,361.000000 
	C1.042027,241.000000 1.042027,120.999992 1.042027,1.000000 
	C7.743429,1.000000 14.402802,1.000000 21.531088,1.000000 
	C22.073509,1.165571 22.147017,1.331143 22.076729,1.983661 
	C21.977751,2.644164 22.022570,2.817719 22.067387,2.991274 
	C21.995777,4.149832 21.861485,5.308389 21.861456,6.466948 
	C21.858597,123.674034 21.865879,240.881119 21.902733,358.808777 
	C22.039886,359.673096 22.146854,359.816895 22.253820,359.960663 
z"/>
<path fill="#000000" opacity="1.000000" stroke="none" 
	d="
M380.444153,361.000000 
	C380.006409,360.833069 380.012817,360.666168 380.261353,360.098633 
	C380.463959,359.504639 380.424408,359.311279 380.384857,359.117920 
	C380.482971,358.132050 380.667023,357.146210 380.667023,356.160339 
	C380.668488,238.664200 380.656372,121.168068 380.573944,2.987289 
	C380.333160,2.202131 380.163422,2.101618 379.993652,2.001105 
	C380.002136,1.834301 380.010651,1.667498 380.009583,1.250347 
	C386.991638,1.000000 393.983307,1.000000 401.000000,1.000000 
	C401.000000,116.020897 401.000000,231.041794 400.624329,346.522278 
	C397.606842,345.156006 394.965088,343.330109 392.323334,341.504242 
	C392.112946,341.851318 391.902588,342.198395 391.692200,342.545471 
	C392.455658,343.964935 393.219086,345.384399 393.586700,346.851440 
	C391.750366,346.994537 390.309875,347.090057 388.592438,347.203949 
	C388.592438,350.329987 388.592438,353.130432 388.336121,355.937012 
	C387.738037,355.953094 387.396301,355.963013 386.805847,355.707275 
	C386.111786,353.281921 385.666382,351.122192 385.527557,348.938263 
	C385.904633,348.344177 385.975159,347.774323 386.045654,347.204437 
	C385.374390,347.823242 384.703125,348.442017 383.966187,349.478699 
	C385.037201,352.890869 386.180084,355.882782 387.306030,358.881073 
	C387.567047,359.576233 387.770233,360.293121 388.000000,361.000000 
	C385.629425,361.000000 383.258881,361.000000 380.444153,361.000000 
M389.851715,344.939240 
	C389.648071,344.430939 389.458374,343.915466 389.208099,343.431274 
	C389.192078,343.400269 388.706635,343.611938 388.439545,343.710724 
	C388.783142,344.259735 389.126740,344.808746 389.851715,344.939240 
z"/>
<path fill="#0090C1" opacity="1.000000" stroke="none" 
	d="
M388.449982,361.000000 
	C387.770233,360.293121 387.567047,359.576233 387.306030,358.881073 
	C386.180084,355.882782 385.037201,352.890869 384.262878,349.447205 
	C384.823883,348.985992 385.022461,348.974213 385.221008,348.962463 
	C385.666382,351.122192 386.111786,353.281921 386.856812,355.992615 
	C387.775726,356.968506 388.394958,357.393433 389.337158,358.003174 
	C392.000183,358.022705 394.340302,357.857452 396.902954,357.917755 
	C397.277863,358.289703 397.430206,358.436066 397.309113,358.866577 
	C397.023773,359.767151 397.011902,360.383575 397.000000,361.000000 
	C394.299988,361.000000 391.599976,361.000000 388.449982,361.000000 
z"/>
<path fill="#000000" opacity="1.000000" stroke="none" 
	d="
M401.000000,349.000000 
	C401.000000,350.714386 401.000000,352.428741 400.648346,354.605286 
	C399.121307,355.672424 397.945953,356.277435 396.651672,356.816833 
	C396.382965,356.644073 396.262329,356.510529 396.194305,355.884247 
	C396.299347,353.282776 396.380890,351.147736 396.840332,349.014160 
	C398.478851,349.010437 399.739410,349.005219 401.000000,349.000000 
z"/>
<path fill="#000C11" opacity="1.000000" stroke="none" 
	d="
M401.000000,348.666687 
	C399.739410,349.005219 398.478851,349.010437 396.653381,348.723267 
	C395.386536,347.888519 394.684540,347.346191 393.982513,346.803864 
	C393.219086,345.384399 392.455658,343.964935 391.692200,342.545471 
	C391.902588,342.198395 392.112946,341.851318 392.323334,341.504242 
	C394.965088,343.330109 397.606842,345.156006 400.624329,346.990936 
	C401.000000,347.444458 401.000000,347.888885 401.000000,348.666687 
z"/>
<path fill="#030303" opacity="1.000000" stroke="none" 
	d="
M397.500000,361.000000 
	C397.011902,360.383575 397.023773,359.767151 397.615723,358.684875 
	C399.130524,357.812683 400.065247,357.406342 401.000000,357.000000 
	C400.911499,359.016968 402.016388,361.928955 397.500000,361.000000 
z"/>
<path fill="#0090C1" opacity="1.000000" stroke="none" 
	d="
M401.000000,356.666687 
	C400.065247,357.406342 399.130524,357.812683 397.889160,358.400726 
	C397.430206,358.436066 397.277863,358.289703 396.941956,357.717224 
	C396.758362,357.291107 396.770569,356.882446 396.770569,356.882446 
	C397.945953,356.277435 399.121307,355.672424 400.648346,355.033691 
	C401.000000,355.444458 401.000000,355.888885 401.000000,356.666687 
z"/>
<path fill="#036CA7" opacity="1.000000" stroke="none" 
	d="
M246.000000,347.986023 
	C175.367111,347.986023 105.234238,347.986023 34.783928,347.986023 
	C34.783928,286.640961 34.783928,225.573944 34.783928,164.210449 
	C145.739975,164.210449 256.589081,164.210449 367.680237,164.210449 
	C367.680237,225.348450 367.680237,286.270905 367.680237,347.986053 
	C327.294983,347.986053 286.897491,347.986053 246.000000,347.986023 
M54.627197,284.840729 
	C54.084373,289.928894 58.066223,287.452057 59.725388,287.454498 
	C153.937897,287.593536 248.150635,287.578491 342.363342,287.578156 
	C343.528442,287.578156 344.914124,287.961700 345.798859,287.461792 
	C346.753693,286.922241 347.239929,285.553406 347.558594,283.747742 
	C345.959534,283.498505 344.360565,283.031708 342.761414,283.031128 
	C248.492035,282.996307 154.222641,282.993591 59.953289,283.051239 
	C58.264462,283.052277 56.576099,283.820679 54.627197,284.840729 
M312.500000,225.120361 
	C228.514832,225.120407 144.529663,225.120346 60.544506,225.121475 
	C59.045197,225.121506 57.534580,225.028427 56.050838,225.184326 
	C55.164375,225.277481 54.320042,225.771484 53.456772,226.085297 
	C53.827419,226.614960 54.198067,227.144608 54.568714,227.674271 
	C152.313751,227.674271 250.058792,227.674271 347.903961,227.674271 
	C347.822968,226.858551 347.786469,225.947433 347.724670,225.945694 
	C336.317627,225.628281 324.908783,225.375504 312.500000,225.120361 
M58.168415,258.644653 
	C57.720657,262.584747 57.272896,266.524872 56.789970,270.774445 
	C59.467194,271.226013 61.048370,271.221222 61.142029,267.949585 
	C61.268028,263.548096 61.886162,259.160645 62.429409,253.294937 
	C65.703300,259.914703 68.360542,265.287628 71.621437,271.881134 
	C74.951767,265.231934 77.691246,259.762390 81.102097,252.952408 
	C81.794182,259.965210 82.327438,265.368652 82.886856,271.037201 
	C84.848724,270.941345 86.391106,270.866028 88.202957,270.777496 
	C87.080879,260.975098 86.017815,251.688187 84.954750,242.401276 
	C84.367004,242.261993 83.779259,242.122696 83.191521,241.983414 
	C79.701218,248.536713 76.210922,255.090012 72.502213,262.053406 
	C68.913635,255.000565 65.586823,248.462173 62.260002,241.923767 
	C61.667854,242.055069 61.075706,242.186356 60.483562,242.317642 
	C59.752613,247.466064 59.021667,252.614487 58.168415,258.644653 
M294.158997,307.678101 
	C292.094116,311.726562 290.029236,315.775024 287.755310,320.233368 
	C284.013428,313.027344 280.650574,306.551208 277.287689,300.075073 
	C276.700989,300.230194 276.114258,300.385315 275.527527,300.540436 
	C274.304504,309.936951 273.081482,319.333435 271.858459,328.729919 
	C272.769806,329.003906 273.681183,329.277924 274.592560,329.551910 
	C278.047394,324.762573 275.965668,318.052704 277.877167,311.861877 
	C280.911469,318.032471 283.560211,323.419006 286.769928,329.946320 
	C290.095856,323.351593 292.781830,318.025696 295.467834,312.699829 
	C295.793060,312.788727 296.118256,312.877655 296.443481,312.966553 
	C296.958771,318.196350 297.474030,323.426147 298.000427,328.768646 
	C299.783112,328.768646 301.328217,328.768646 303.300110,328.768646 
	C302.222168,319.132202 301.181885,309.832611 300.141632,300.532990 
	C299.566498,300.382446 298.991364,300.231903 298.416229,300.081329 
	C297.119934,302.398773 295.823608,304.716217 294.158997,307.678101 
M220.241791,201.867996 
	C221.367599,199.695236 222.493423,197.522461 224.239578,194.152466 
	C224.915588,200.886459 225.466995,206.379242 226.013245,211.820557 
	C227.918747,211.820557 229.337158,211.820557 231.287888,211.820557 
	C230.210251,202.168228 229.164124,192.798218 228.118011,183.428223 
	C227.478775,183.297867 226.839539,183.167511 226.200302,183.037155 
	C222.762177,189.624313 219.324051,196.211487 215.660934,203.229721 
	C212.005219,196.051437 208.682617,189.527237 205.360001,183.003021 
	C204.753799,183.144089 204.147614,183.285156 203.541412,183.426239 
	C202.310410,192.809448 201.079422,202.192657 199.784622,212.062256 
	C201.544220,211.905685 202.738663,211.799408 203.930817,211.693329 
	C204.446365,206.156006 204.930161,200.959686 205.545853,194.346817 
	C208.839264,200.944489 211.511230,206.297226 214.718018,212.721344 
	C216.835312,208.620499 218.399231,205.591461 220.241791,201.867996 
M188.743683,306.621460 
	C188.743683,314.020782 188.743683,321.420074 188.743683,329.198639 
	C197.381042,328.597748 206.352081,331.730652 211.693924,322.456299 
	C214.865250,316.950348 214.691315,308.545929 210.959396,304.543854 
	C204.651260,297.779053 196.540009,301.243561 188.743744,300.563080 
	C188.743744,302.708221 188.743744,304.184479 188.743683,306.621460 
M178.078613,247.683807 
	C171.835037,239.195465 163.067474,243.348587 155.242950,242.437653 
	C155.242950,252.358429 155.242950,261.601624 155.242950,270.805237 
	C175.820435,272.510559 183.965881,264.502319 178.078613,247.683807 
M67.074699,208.950394 
	C63.075859,207.406219 62.563465,203.953445 62.510105,200.360931 
	C62.429070,194.904938 62.488907,189.446854 62.488907,183.912079 
	C60.586777,183.912079 59.076138,183.912079 57.637268,183.912079 
	C57.637268,190.576157 57.235664,196.904877 57.745697,203.159286 
	C58.300144,209.958344 62.263515,212.939758 69.220863,212.874573 
	C76.013153,212.810928 80.361008,209.486832 80.816925,203.061432 
	C81.271141,196.660202 80.916489,190.201569 80.916489,183.768112 
	C80.420959,183.545074 79.925423,183.322021 79.429893,183.098984 
	C78.701942,184.314194 77.415733,185.498199 77.345749,186.750183 
	C77.086494,191.388550 77.349503,196.053482 77.190842,200.700729 
	C76.956436,207.566437 74.934158,209.318893 67.074699,208.950394 
M71.443092,305.025604 
	C70.645226,303.312042 69.847351,301.598450 68.366203,298.417419 
	C63.633324,309.418976 59.528347,318.960999 55.292519,328.807159 
	C59.832893,328.863861 60.256504,328.970367 61.681747,323.302185 
	C62.873737,318.561646 65.906319,317.140961 69.536110,318.641693 
	C71.665985,319.522308 73.230164,322.770142 74.172890,325.281921 
	C75.489761,328.790527 77.322014,330.081116 81.243683,328.553101 
	C78.089409,320.928802 74.939713,313.315582 71.443092,305.025604 
M165.408051,323.228119 
	C162.131134,315.410706 158.854202,307.593323 155.577286,299.775909 
	C155.054733,299.867401 154.532196,299.958923 154.009644,300.050415 
	C149.934036,309.549164 145.858429,319.047913 141.713913,328.707275 
	C147.693115,330.327759 147.519775,325.609924 148.063736,322.964203 
	C149.149628,317.682526 153.009567,317.521179 156.290665,318.695007 
	C158.270691,319.403351 159.741150,322.749542 160.559738,325.204193 
	C161.764496,328.816895 163.589752,330.097107 167.401993,328.589966 
	C166.859146,327.043640 166.316269,325.497253 165.408051,323.228119 
M293.435638,242.148758 
	C292.929688,242.507416 292.169281,242.754333 291.955444,243.241287 
	C287.971466,252.314087 284.052429,261.415436 280.098419,270.560181 
	C285.428436,272.577057 285.650024,268.434967 286.248596,265.695648 
	C287.270935,261.016876 290.111938,258.825195 294.250824,260.505798 
	C296.373810,261.367859 297.990082,264.606171 298.880676,267.110168 
	C300.211304,270.851288 302.147369,271.998932 306.148315,270.462952 
	C302.075775,261.027618 298.077454,251.764267 293.435638,242.148758 
M259.696777,201.275940 
	C265.445862,199.948151 265.979767,204.470505 267.380188,208.080048 
	C269.174500,212.704788 269.204498,212.693146 274.326965,211.206680 
	C270.295959,201.709457 266.283234,192.255371 262.270508,182.801270 
	C261.777863,182.850403 261.285217,182.899551 260.792603,182.948685 
	C256.717834,192.453506 252.643112,201.958344 248.563904,211.473587 
	C251.854904,212.963806 252.926956,211.540115 254.098679,209.011246 
	C255.355133,206.299515 254.350845,202.000122 259.696777,201.275940 
M236.267181,317.478943 
	C236.267181,321.246918 236.267181,325.014923 236.267181,328.850830 
	C241.796341,328.850830 246.699753,328.850830 252.218170,328.850830 
	C250.179657,321.986664 244.443604,327.745148 241.612061,324.995941 
	C241.612061,322.145874 241.612061,319.240601 241.612061,316.971100 
	C244.111954,314.114960 249.752457,318.953003 250.736450,312.143250 
	C247.154800,312.143250 244.405777,312.143250 241.270645,312.143250 
	C241.395340,309.433960 241.504150,307.069794 241.621857,304.512268 
	C245.104218,304.512268 248.025864,304.512268 250.938843,304.512268 
	C250.846817,300.553558 244.908127,299.427948 236.267303,301.709900 
	C236.267303,306.572205 236.267303,311.530609 236.267181,317.478943 
M125.163643,258.011230 
	C126.126190,257.101807 127.088730,256.192413 128.051270,255.282990 
	C127.705002,254.946579 127.358727,254.610153 127.012444,254.273743 
	C124.404434,254.273743 121.796417,254.273743 119.031036,254.273743 
	C119.031036,251.508163 119.031036,248.991257 119.031036,246.183548 
	C120.931984,246.183548 122.417908,246.149002 123.901474,246.193405 
	C125.344849,246.236588 126.785805,246.360641 128.257309,246.451004 
	C128.035599,242.444839 124.299065,241.688736 113.963211,243.287170 
	C113.963211,252.481888 113.963211,261.679596 113.963211,270.833160 
	C119.155159,270.833160 123.928886,270.833160 129.380157,270.833160 
	C127.378227,264.188416 122.099068,269.268738 118.963928,266.914948 
	C118.963928,264.258179 118.963928,261.230804 118.963928,257.973022 
	C120.959488,257.973022 122.602737,257.973022 125.163643,258.011230 
M235.501450,252.464005 
	C233.990784,258.737030 234.850037,264.432526 239.962341,268.827850 
	C244.447128,272.683624 249.682724,273.085907 254.930817,270.841766 
	C256.596558,270.129456 257.682465,268.061157 259.033722,266.613373 
	C250.441177,269.735382 245.830017,269.606506 242.482727,265.328522 
	C239.147491,261.065918 239.218781,253.142410 242.630112,248.953522 
	C246.007828,244.805847 250.323273,244.722824 257.652557,248.853073 
	C258.141449,247.479050 258.609009,246.165009 259.055542,244.909988 
	C249.467133,239.661819 240.283722,242.461502 235.501450,252.464005 
M102.371475,305.986206 
	C101.662979,307.296448 100.780113,308.543243 100.276337,309.927979 
	C98.146446,315.782318 99.698418,322.608368 103.988312,326.454559 
	C108.708725,330.686798 114.140808,331.211609 119.750755,328.806763 
	C121.253479,328.162598 122.172318,326.156342 123.359207,324.775421 
	C123.027039,324.489929 122.694878,324.204437 122.362709,323.918945 
	C115.294548,327.714203 110.785248,327.692719 107.412247,323.847778 
	C104.005219,319.964050 103.626099,311.652954 106.953339,307.540619 
	C108.139336,306.074768 110.049416,304.229858 111.621613,304.236755 
	C115.198830,304.252441 118.771492,305.307953 122.683182,306.000610 
	C124.369507,303.400299 123.183907,301.688293 119.796799,301.062531 
	C113.489662,299.897278 107.508118,300.100891 102.371475,305.986206 
M291.653046,187.506409 
	C293.559235,187.346085 295.465424,187.185776 297.837067,186.986313 
	C297.837067,195.673157 297.837067,203.728073 297.837067,212.054901 
	C299.547211,211.977127 300.822693,211.919144 302.527710,211.841614 
	C302.527710,203.584213 302.527710,195.506531 302.527710,186.962555 
	C305.398438,187.185745 307.801788,187.372604 310.617828,187.591553 
	C310.552368,186.194733 310.491272,184.891724 310.429047,183.564423 
	C303.330231,183.564423 296.723816,183.564423 289.227936,183.564423 
	C289.885315,185.205551 290.380676,186.442215 291.653046,187.506409 
M342.895813,196.825455 
	C340.009155,196.201691 337.122467,195.577927 334.317139,194.971741 
	C334.317139,192.478745 334.317139,189.939713 334.317139,187.370132 
	C337.664337,187.370132 340.587860,187.370132 343.508057,187.370132 
	C343.367004,183.348618 340.322296,182.730255 329.250763,184.338394 
	C329.250763,193.505173 329.250763,202.687744 329.250763,211.860245 
	C334.368164,211.860245 339.132019,211.860245 344.552399,211.860245 
	C342.530914,205.183990 337.284210,210.386261 334.171326,208.130768 
	C334.171326,205.381622 334.171326,202.326721 334.171326,199.613251 
	C337.291199,198.923431 340.077728,198.307297 342.895813,196.825455 
M148.969223,211.178284 
	C148.969223,203.219055 148.969223,195.259811 148.969223,186.908539 
	C152.006882,187.170639 154.539795,187.389191 157.360657,187.632599 
	C157.127121,185.958893 156.954376,184.720871 156.790100,183.543594 
	C149.837814,183.543594 143.209427,183.543594 136.161224,183.543594 
	C136.243164,185.053391 136.314377,186.365570 136.382965,187.629349 
	C139.160080,187.374359 141.417282,187.167114 144.164490,186.914871 
	C144.164490,195.457809 144.164490,203.541916 144.164490,211.970901 
	C145.899048,211.970901 147.181168,211.970901 148.969223,211.178284 
M337.177551,318.139862 
	C340.043976,312.493530 342.910370,306.847198 345.893677,300.970581 
	C337.793091,300.491638 339.631805,309.247742 334.923981,312.218292 
	C333.493500,309.612000 331.785950,307.129547 330.714447,304.397644 
	C329.202362,300.542480 326.482269,300.597229 322.863403,301.293854 
	C327.741730,310.073364 334.866699,317.816956 331.839294,329.087769 
	C334.156921,328.958832 335.542542,328.881714 337.173492,328.790955 
	C337.173492,325.294434 337.173492,322.155304 337.177551,318.139862 
M329.875488,258.493988 
	C329.875488,262.595490 329.875488,266.696991 329.875488,270.801422 
	C335.262909,270.801422 340.006378,270.801422 345.258514,270.801422 
	C343.392548,264.111450 338.032349,269.262634 334.719299,266.732544 
	C334.719299,259.078461 334.719299,250.987610 334.719299,242.781647 
	C332.867340,242.781647 331.501129,242.781647 329.875427,242.781647 
	C329.875427,247.869370 329.875427,252.683456 329.875488,258.493988 
M114.554176,208.226547 
	C112.476349,208.385208 110.398529,208.543884 107.752182,208.745972 
	C107.752182,200.060013 107.752182,191.853989 107.752182,183.391876 
	C105.807358,183.639786 104.448280,183.813034 103.274948,183.962601 
	C103.274948,193.487808 103.274948,202.563477 103.274948,211.888062 
	C108.241463,211.888062 112.963501,211.888062 117.685532,211.888062 
	C117.955940,211.478470 118.226349,211.068893 118.496750,210.659302 
	C117.470345,209.841492 116.443932,209.023666 114.554176,208.226547 
M205.786957,252.517517 
	C205.786957,258.593567 205.786957,264.669617 205.786957,271.014984 
	C207.610245,270.857178 208.822998,270.752228 209.986145,270.651550 
	C209.986145,261.238159 209.986145,252.168488 209.986145,242.946930 
	C208.562759,242.946930 207.372574,242.946930 205.786880,242.946930 
	C205.786880,245.938950 205.786880,248.729599 205.786957,252.517517 
M175.786972,206.400726 
	C175.786972,208.169647 175.786972,209.938553 175.786972,212.009720 
	C177.562454,211.885117 178.770859,211.800308 180.014359,211.713043 
	C180.014359,202.315994 180.014359,193.259262 180.014359,183.746445 
	C178.481506,183.875473 177.187454,183.984390 175.786896,184.102280 
	C175.786896,191.528961 175.786896,198.477951 175.786972,206.400726 
z"/>
<path fill="#0296C8" opacity="1.000000" stroke="none" 
	d="
M345.000000,157.172882 
	C241.385162,157.172928 138.270325,157.172928 34.883430,157.172928 
	C34.883430,109.259003 34.883430,61.875134 34.883430,14.267763 
	C145.910858,14.267763 256.648346,14.267763 367.651428,14.267763 
	C367.651428,61.784039 367.651428,109.050430 367.651428,157.172821 
	C360.313171,157.172821 352.906586,157.172821 345.000000,157.172882 
M158.809509,130.487930 
	C164.972900,130.483551 171.137543,130.538956 177.298264,130.408478 
	C178.192871,130.389542 179.068604,129.480774 179.953079,128.983780 
	C179.194382,128.351364 178.526276,127.360703 177.662872,127.142349 
	C169.663376,125.119286 168.021530,123.086586 168.013947,114.637085 
	C167.998672,97.645653 168.011703,80.654198 168.013031,63.662754 
	C168.013153,62.151577 168.013062,60.640400 168.013062,59.129223 
	C168.297150,59.117813 168.581238,59.106403 168.865326,59.094994 
	C177.684769,82.980820 186.504196,106.866653 195.323639,130.752487 
	C195.874100,130.754822 196.424561,130.757156 196.975021,130.759491 
	C205.975403,106.354164 214.975784,81.948830 223.976166,57.543491 
	C224.893188,78.441139 224.884781,99.055962 224.899399,119.670761 
	C224.902832,124.511642 222.811462,127.129723 217.702057,127.172302 
	C216.588028,127.181580 215.483582,128.338974 214.374710,128.967590 
	C215.438950,129.473358 216.498398,130.406372 217.568176,130.418381 
	C227.561874,130.530487 237.557922,130.532104 247.551483,130.413269 
	C248.586487,130.400970 249.609756,129.400101 250.638489,128.857941 
	C249.659958,128.272995 248.734253,127.309944 247.694305,127.164665 
	C241.128006,126.247314 240.136093,125.367836 240.110443,118.587685 
	C240.034775,98.598900 240.035049,78.609474 240.107910,58.620682 
	C240.133545,51.585754 240.915222,50.920666 247.980789,49.828316 
	C248.924225,49.682457 249.762756,48.857941 250.649857,48.347702 
	C249.689163,47.734486 248.745682,46.625111 247.764877,46.591106 
	C242.606964,46.412251 237.439636,46.504311 232.275574,46.503841 
	C223.896332,46.503086 223.896927,46.503807 220.992493,54.498692 
	C214.885361,71.309456 208.777527,88.119965 202.328354,105.870857 
	C201.340256,103.484428 200.669525,102.013969 200.114487,100.501060 
	C193.984818,83.793221 187.822235,67.097061 181.808151,50.347622 
	C180.840652,47.653076 179.685547,46.286213 176.535736,46.424747 
	C170.384079,46.695320 164.210251,46.425018 158.050049,46.568657 
	C156.779587,46.598278 155.528503,47.457840 154.268478,47.934875 
	C155.491913,48.647484 156.635468,49.652328 157.955093,50.012943 
	C160.861420,50.807167 164.014481,50.968857 164.003113,55.209385 
	C163.947739,75.865196 163.987900,96.521294 163.907669,117.176956 
	C163.889832,121.772896 161.777878,125.082916 157.244003,126.698280 
	C156.036972,127.128326 155.023697,128.102188 153.921463,128.826355 
	C155.248199,129.380112 156.574936,129.933868 158.809509,130.487930 
M273.156281,114.789642 
	C273.651764,113.554947 274.402802,112.359070 274.597351,111.078644 
	C275.333008,106.236984 278.219238,105.171646 282.703552,105.524551 
	C287.669250,105.915352 292.800964,106.283081 297.662415,105.472900 
	C307.457184,103.840538 312.438232,107.882347 315.243164,117.049088 
	C317.465912,124.313187 317.374390,125.422264 309.763153,127.160728 
	C308.908478,127.355949 308.241211,128.371750 307.487061,129.007034 
	C308.222748,129.501953 308.954681,130.421463 309.694641,130.427917 
	C320.352905,130.521027 331.012604,130.529022 341.670441,130.415115 
	C342.468811,130.406586 343.255646,129.316223 344.047821,128.728775 
	C343.390198,128.147690 342.773743,127.121063 342.068451,127.055893 
	C336.320709,126.524712 334.032867,122.447296 332.033875,117.835533 
	C322.179474,95.101379 312.260651,72.395134 302.351501,49.684734 
	C301.643951,48.063110 300.831543,46.487240 299.861053,44.457474 
	C297.116730,47.560051 295.156036,50.599216 292.443054,52.636765 
	C289.009949,55.215153 289.354004,58.192753 290.055969,61.569431 
	C290.115143,61.854042 289.901031,62.209591 289.775513,62.516472 
	C282.220581,80.982735 274.907043,99.555031 266.890961,117.819016 
	C265.333618,121.367363 261.011932,123.687363 258.021637,126.631157 
	C257.128723,127.510193 256.427185,128.583649 254.890518,130.500351 
	C263.288116,130.500351 270.107300,130.564743 276.922699,130.432236 
	C277.968048,130.411911 278.995758,129.483612 280.031616,128.975250 
	C279.102325,128.326706 278.255646,127.330620 277.230133,127.086845 
	C271.238892,125.662621 270.359283,124.306648 272.000244,118.390221 
	C272.266418,117.430542 272.621002,116.495361 273.156281,114.789642 
M139.208725,51.716869 
	C140.888077,51.108868 142.595856,50.567436 144.235626,49.866802 
	C145.155121,49.473934 145.962036,48.817589 146.819672,48.279953 
	C145.841507,47.688042 144.874939,46.607025 143.883301,46.583500 
	C137.391083,46.429489 130.891907,46.433605 124.399139,46.575188 
	C123.344742,46.598179 122.310852,47.561295 121.267479,48.089863 
	C122.228920,48.693596 123.129578,49.673279 124.161659,49.840160 
	C130.955444,50.938709 132.896912,52.800156 132.943253,59.541641 
	C133.049744,75.030869 133.087311,90.522705 132.913284,106.010796 
	C132.829590,113.459122 129.763306,119.778168 123.287125,123.656586 
	C113.475075,129.532745 102.840523,131.306595 92.311684,126.118919 
	C82.592987,121.330399 81.509262,111.704018 81.030243,102.155701 
	C81.021912,101.989426 81.019943,101.822678 81.019928,101.656151 
	C81.018082,87.665092 80.964989,73.673775 81.035233,59.683079 
	C81.075661,51.630695 81.395805,51.395863 89.392189,49.818859 
	C90.204262,49.658710 90.899269,48.905041 91.648605,48.426800 
	C90.877090,47.789330 90.161240,46.706398 89.323151,46.601658 
	C87.190674,46.335152 85.003540,46.502254 82.838280,46.502571 
	C75.176521,46.503685 67.514046,46.459888 59.853928,46.573349 
	C58.937706,46.586922 58.034245,47.461647 57.124866,47.937218 
	C57.526421,48.555481 57.873249,49.667023 58.337685,49.718544 
	C66.207184,50.591614 65.868614,56.468594 65.899162,62.044044 
	C65.976746,76.200760 65.691147,90.366180 66.096336,104.512489 
	C66.503212,118.717346 74.422272,128.332962 88.272064,130.670853 
	C95.705597,131.925629 103.607155,132.175095 111.065903,131.166061 
	C129.868011,128.622513 137.006531,119.813499 137.008713,101.011772 
	C137.010239,87.853485 136.906998,74.693779 137.087646,61.537960 
	C137.129807,58.467339 138.133347,55.409916 139.208725,51.716869 
z"/>
<path fill="#FFFFFF" opacity="1.000000" stroke="none" 
	d="
M379.847107,2.134367 
	C380.163422,2.101618 380.333160,2.202131 380.443878,2.592628 
	C380.156738,2.677618 379.928619,2.472624 379.847107,2.134367 
z"/>
<path fill="#FFFFFF" opacity="1.000000" stroke="none" 
	d="
M22.221107,2.919360 
	C22.022570,2.817719 21.977751,2.644164 22.093420,2.254880 
	C22.367764,2.224106 22.500051,2.401458 22.581785,2.599659 
	C22.600868,2.645938 22.448380,2.762969 22.221107,2.919360 
z"/>
<path fill="#FFFFFF" opacity="1.000000" stroke="none" 
	d="
M22.375198,359.843079 
	C22.146854,359.816895 22.039886,359.673096 22.000156,359.269104 
	C22.210455,359.247742 22.353514,359.486603 22.375198,359.843079 
z"/>
<path fill="#FFFFFF" opacity="1.000000" stroke="none" 
	d="
M380.185486,359.146851 
	C380.424408,359.311279 380.463959,359.504639 380.248535,359.848450 
	C379.872772,359.781616 379.751923,359.564301 379.631073,359.346954 
	C379.749420,359.289886 379.867798,359.232819 380.185486,359.146851 
z"/>
<path fill="#0089B9" opacity="1.000000" stroke="none" 
	d="
M393.586700,346.851440 
	C394.684540,347.346191 395.386536,347.888519 396.275482,348.721771 
	C396.380890,351.147736 396.299347,353.282776 395.801605,355.837952 
	C394.330261,355.064026 393.275116,353.869934 392.362427,352.837067 
	C390.952271,354.491425 390.031311,355.571808 389.027405,356.438477 
	C388.944397,356.224762 388.592438,355.930847 388.592438,355.930847 
	C388.592438,353.130432 388.592438,350.329987 388.592438,347.203949 
	C390.309875,347.090057 391.750366,346.994537 393.586700,346.851440 
z"/>
<path fill="#001C26" opacity="1.000000" stroke="none" 
	d="
M385.527557,348.938263 
	C385.022461,348.974213 384.823883,348.985992 384.328552,349.029266 
	C384.703125,348.442017 385.374390,347.823242 386.045654,347.204437 
	C385.975159,347.774323 385.904633,348.344177 385.527557,348.938263 
z"/>
<path fill="#000C11" opacity="1.000000" stroke="none" 
	d="
M389.661011,345.148499 
	C389.126740,344.808746 388.783142,344.259735 388.439575,343.710724 
	C388.706635,343.611938 389.192078,343.400269 389.208099,343.431274 
	C389.458374,343.915466 389.648071,344.430939 389.661011,345.148499 
z"/>
<path fill="#001C26" opacity="1.000000" stroke="none" 
	d="
M388.336121,355.937012 
	C388.592438,355.930847 388.944397,356.224762 388.998169,356.729980 
	C389.039337,357.429596 389.026764,357.623993 389.014191,357.818359 
	C388.394958,357.393433 387.775726,356.968506 387.105499,356.258240 
	C387.396301,355.963013 387.738037,355.953094 388.336121,355.937012 
z"/>
<path fill="#00161D" opacity="1.000000" stroke="none" 
	d="
M389.337158,358.003174 
	C389.026764,357.623993 389.039337,357.429596 389.081177,356.943726 
	C390.031311,355.571808 390.952271,354.491425 392.362427,352.837067 
	C393.275116,353.869934 394.330261,355.064026 395.778107,356.304382 
	C396.262329,356.510529 396.382965,356.644073 396.651672,356.816833 
	C396.770569,356.882446 396.758362,357.291107 396.719360,357.491638 
	C394.340302,357.857452 392.000183,358.022705 389.337158,358.003174 
z"/>
<path fill="#D3E6F0" opacity="1.000000" stroke="none" 
	d="
M347.930603,284.546326 
	C347.239929,285.553406 346.753693,286.922241 345.798859,287.461792 
	C344.914124,287.961700 343.528442,287.578156 342.363342,287.578156 
	C248.150635,287.578491 153.937897,287.593536 59.725388,287.454498 
	C58.066223,287.452057 54.084373,289.928894 55.237869,284.552673 
	C151.051361,284.275177 246.254181,284.284149 341.457001,284.306793 
	C343.614899,284.307312 345.772736,284.463013 347.930603,284.546326 
z"/>
<path fill="#E8F1F7" opacity="1.000000" stroke="none" 
	d="
M313.000000,225.120392 
	C324.908783,225.375504 336.317627,225.628281 347.724670,225.945694 
	C347.786469,225.947433 347.822968,226.858551 347.903961,227.674271 
	C250.058792,227.674271 152.313751,227.674271 54.568714,227.674271 
	C54.198067,227.144608 53.827419,226.614960 53.456772,226.085297 
	C54.320042,225.771484 55.164375,225.277481 56.050838,225.184326 
	C57.534580,225.028427 59.045197,225.121506 60.544506,225.121475 
	C144.529663,225.120346 228.514832,225.120407 313.000000,225.120392 
z"/>
<path fill="#EEF5F9" opacity="1.000000" stroke="none" 
	d="
M58.229568,258.203796 
	C59.021667,252.614487 59.752613,247.466064 60.483562,242.317642 
	C61.075706,242.186356 61.667854,242.055069 62.260002,241.923767 
	C65.586823,248.462173 68.913635,255.000565 72.502213,262.053406 
	C76.210922,255.090012 79.701218,248.536713 83.191521,241.983414 
	C83.779259,242.122696 84.367004,242.261993 84.954750,242.401276 
	C86.017815,251.688187 87.080879,260.975098 88.202957,270.777496 
	C86.391106,270.866028 84.848724,270.941345 82.886856,271.037201 
	C82.327438,265.368652 81.794182,259.965210 81.102097,252.952408 
	C77.691246,259.762390 74.951767,265.231934 71.621437,271.881134 
	C68.360542,265.287628 65.703300,259.914703 62.429409,253.294937 
	C61.886162,259.160645 61.268028,263.548096 61.142029,267.949585 
	C61.048370,271.221222 59.467194,271.226013 56.789970,270.774445 
	C57.272896,266.524872 57.720657,262.584747 58.229568,258.203796 
z"/>
<path fill="#F0F6FA" opacity="1.000000" stroke="none" 
	d="
M294.343140,307.355896 
	C295.823608,304.716217 297.119934,302.398773 298.416229,300.081329 
	C298.991364,300.231903 299.566498,300.382446 300.141632,300.532990 
	C301.181885,309.832611 302.222168,319.132202 303.300110,328.768646 
	C301.328217,328.768646 299.783112,328.768646 298.000427,328.768646 
	C297.474030,323.426147 296.958771,318.196350 296.443481,312.966553 
	C296.118256,312.877655 295.793060,312.788727 295.467834,312.699829 
	C292.781830,318.025696 290.095856,323.351593 286.769928,329.946320 
	C283.560211,323.419006 280.911469,318.032471 277.877167,311.861877 
	C275.965668,318.052704 278.047394,324.762573 274.592560,329.551910 
	C273.681183,329.277924 272.769806,329.003906 271.858459,328.729919 
	C273.081482,319.333435 274.304504,309.936951 275.527527,300.540436 
	C276.114258,300.385315 276.700989,300.230194 277.287689,300.075073 
	C280.650574,306.551208 284.013428,313.027344 287.755310,320.233368 
	C290.029236,315.775024 292.094116,311.726562 294.343140,307.355896 
z"/>
<path fill="#EFF6FA" opacity="1.000000" stroke="none" 
	d="
M220.102478,202.215210 
	C218.399231,205.591461 216.835312,208.620499 214.718018,212.721344 
	C211.511230,206.297226 208.839264,200.944489 205.545853,194.346817 
	C204.930161,200.959686 204.446365,206.156006 203.930817,211.693329 
	C202.738663,211.799408 201.544220,211.905685 199.784622,212.062256 
	C201.079422,202.192657 202.310410,192.809448 203.541412,183.426239 
	C204.147614,183.285156 204.753799,183.144089 205.360001,183.003021 
	C208.682617,189.527237 212.005219,196.051437 215.660934,203.229721 
	C219.324051,196.211487 222.762177,189.624313 226.200302,183.037155 
	C226.839539,183.167511 227.478775,183.297867 228.118011,183.428223 
	C229.164124,192.798218 230.210251,202.168228 231.287888,211.820557 
	C229.337158,211.820557 227.918747,211.820557 226.013245,211.820557 
	C225.466995,206.379242 224.915588,200.886459 224.239578,194.152466 
	C222.493423,197.522461 221.367599,199.695236 220.102478,202.215210 
z"/>
<path fill="#EDF5F9" opacity="1.000000" stroke="none" 
	d="
M188.743713,306.141113 
	C188.743744,304.184479 188.743744,302.708221 188.743744,300.563080 
	C196.540009,301.243561 204.651260,297.779053 210.959396,304.543854 
	C214.691315,308.545929 214.865250,316.950348 211.693924,322.456299 
	C206.352081,331.730652 197.381042,328.597748 188.743683,329.198639 
	C188.743683,321.420074 188.743683,314.020782 188.743713,306.141113 
M204.190384,304.936707 
	C200.886734,304.391632 197.583099,303.846558 193.975983,303.251404 
	C193.975983,311.452606 193.975983,318.523956 193.975983,325.556824 
	C201.200394,326.588287 204.970383,325.201935 207.045410,320.882568 
	C209.665878,315.427795 208.816132,309.134186 204.190384,304.936707 
z"/>
<path fill="#EEF5F9" opacity="1.000000" stroke="none" 
	d="
M178.264679,248.023407 
	C183.965881,264.502319 175.820435,272.510559 155.242950,270.805237 
	C155.242950,261.601624 155.242950,252.358429 155.242950,242.437653 
	C163.067474,243.348587 171.835037,239.195465 178.264679,248.023407 
M159.895660,252.618958 
	C159.895660,257.693359 159.895660,262.767731 159.895660,267.903778 
	C165.449142,268.144745 170.459534,268.388794 173.043015,263.103516 
	C175.309906,258.465912 176.197769,253.280365 172.863495,248.956604 
	C169.726074,244.888092 164.927933,244.842514 159.895691,246.091263 
	C159.895691,248.048218 159.895691,249.856216 159.895660,252.618958 
z"/>
<path fill="#E4EFF6" opacity="1.000000" stroke="none" 
	d="
M67.489983,209.039169 
	C74.934158,209.318893 76.956436,207.566437 77.190842,200.700729 
	C77.349503,196.053482 77.086494,191.388550 77.345749,186.750183 
	C77.415733,185.498199 78.701942,184.314194 79.429893,183.098984 
	C79.925423,183.322021 80.420959,183.545074 80.916489,183.768112 
	C80.916489,190.201569 81.271141,196.660202 80.816925,203.061432 
	C80.361008,209.486832 76.013153,212.810928 69.220863,212.874573 
	C62.263515,212.939758 58.300144,209.958344 57.745697,203.159286 
	C57.235664,196.904877 57.637268,190.576157 57.637268,183.912079 
	C59.076138,183.912079 60.586777,183.912079 62.488907,183.912079 
	C62.488907,189.446854 62.429070,194.904938 62.510105,200.360931 
	C62.563465,203.953445 63.075859,207.406219 67.489983,209.039169 
z"/>
<path fill="#005F9F" opacity="1.000000" stroke="none" 
	d="
M347.744598,284.147034 
	C345.772736,284.463013 343.614899,284.307312 341.457001,284.306793 
	C246.254181,284.284149 151.051361,284.275177 55.368034,284.247803 
	C56.576099,283.820679 58.264462,283.052277 59.953289,283.051239 
	C154.222641,282.993591 248.492035,282.996307 342.761414,283.031128 
	C344.360565,283.031708 345.959534,283.498505 347.744598,284.147034 
z"/>
<path fill="#EDF5F9" opacity="1.000000" stroke="none" 
	d="
M71.616554,305.363983 
	C74.939713,313.315582 78.089409,320.928802 81.243683,328.553101 
	C77.322014,330.081116 75.489761,328.790527 74.172890,325.281921 
	C73.230164,322.770142 71.665985,319.522308 69.536110,318.641693 
	C65.906319,317.140961 62.873737,318.561646 61.681747,323.302185 
	C60.256504,328.970367 59.832893,328.863861 55.292519,328.807159 
	C59.528347,318.960999 63.633324,309.418976 68.366203,298.417419 
	C69.847351,301.598450 70.645226,303.312042 71.616554,305.363983 
z"/>
<path fill="#EEF5F9" opacity="1.000000" stroke="none" 
	d="
M165.590729,323.589478 
	C166.316269,325.497253 166.859146,327.043640 167.401993,328.589966 
	C163.589752,330.097107 161.764496,328.816895 160.559738,325.204193 
	C159.741150,322.749542 158.270691,319.403351 156.290665,318.695007 
	C153.009567,317.521179 149.149628,317.682526 148.063736,322.964203 
	C147.519775,325.609924 147.693115,330.327759 141.713913,328.707275 
	C145.858429,319.047913 149.934036,309.549164 154.009644,300.050415 
	C154.532196,299.958923 155.054733,299.867401 155.577286,299.775909 
	C158.854202,307.593323 162.131134,315.410706 165.590729,323.589478 
z"/>
<path fill="#EDF4F9" opacity="1.000000" stroke="none" 
	d="
M293.757385,242.324829 
	C298.077454,251.764267 302.075775,261.027618 306.148315,270.462952 
	C302.147369,271.998932 300.211304,270.851288 298.880676,267.110168 
	C297.990082,264.606171 296.373810,261.367859 294.250824,260.505798 
	C290.111938,258.825195 287.270935,261.016876 286.248596,265.695648 
	C285.650024,268.434967 285.428436,272.577057 280.098419,270.560181 
	C284.052429,261.415436 287.971466,252.314087 291.955444,243.241287 
	C292.169281,242.754333 292.929688,242.507416 293.757385,242.324829 
z"/>
<path fill="#EEF5F9" opacity="1.000000" stroke="none" 
	d="
M259.283875,201.277161 
	C254.350845,202.000122 255.355133,206.299515 254.098679,209.011246 
	C252.926956,211.540115 251.854904,212.963806 248.563904,211.473587 
	C252.643112,201.958344 256.717834,192.453506 260.792603,182.948685 
	C261.285217,182.899551 261.777863,182.850403 262.270508,182.801270 
	C266.283234,192.255371 270.295959,201.709457 274.326965,211.206680 
	C269.204498,212.693146 269.174500,212.704788 267.380188,208.080048 
	C265.979767,204.470505 265.445862,199.948151 259.283875,201.277161 
z"/>
<path fill="#EAF3F8" opacity="1.000000" stroke="none" 
	d="
M236.267242,316.983978 
	C236.267303,311.530609 236.267303,306.572205 236.267303,301.709900 
	C244.908127,299.427948 250.846817,300.553558 250.938843,304.512268 
	C248.025864,304.512268 245.104218,304.512268 241.621857,304.512268 
	C241.504150,307.069794 241.395340,309.433960 241.270645,312.143250 
	C244.405777,312.143250 247.154800,312.143250 250.736450,312.143250 
	C249.752457,318.953003 244.111954,314.114960 241.612061,316.971100 
	C241.612061,319.240601 241.612061,322.145874 241.612061,324.995941 
	C244.443604,327.745148 250.179657,321.986664 252.218170,328.850830 
	C246.699753,328.850830 241.796341,328.850830 236.267181,328.850830 
	C236.267181,325.014923 236.267181,321.246918 236.267242,316.983978 
z"/>
<path fill="#EDF4F9" opacity="1.000000" stroke="none" 
	d="
M124.704819,257.992126 
	C122.602737,257.973022 120.959488,257.973022 118.963928,257.973022 
	C118.963928,261.230804 118.963928,264.258179 118.963928,266.914948 
	C122.099068,269.268738 127.378227,264.188416 129.380157,270.833160 
	C123.928886,270.833160 119.155159,270.833160 113.963211,270.833160 
	C113.963211,261.679596 113.963211,252.481888 113.963211,243.287170 
	C124.299065,241.688736 128.035599,242.444839 128.257309,246.451004 
	C126.785805,246.360641 125.344849,246.236588 123.901474,246.193405 
	C122.417908,246.149002 120.931984,246.183548 119.031036,246.183548 
	C119.031036,248.991257 119.031036,251.508163 119.031036,254.273743 
	C121.796417,254.273743 124.404434,254.273743 127.012444,254.273743 
	C127.358727,254.610153 127.705002,254.946579 128.051270,255.282990 
	C127.088730,256.192413 126.126190,257.101807 124.704819,257.992126 
z"/>
<path fill="#EDF5F9" opacity="1.000000" stroke="none" 
	d="
M235.648438,252.085205 
	C240.283722,242.461502 249.467133,239.661819 259.055542,244.909988 
	C258.609009,246.165009 258.141449,247.479050 257.652557,248.853073 
	C250.323273,244.722824 246.007828,244.805847 242.630112,248.953522 
	C239.218781,253.142410 239.147491,261.065918 242.482727,265.328522 
	C245.830017,269.606506 250.441177,269.735382 259.033722,266.613373 
	C257.682465,268.061157 256.596558,270.129456 254.930817,270.841766 
	C249.682724,273.085907 244.447128,272.683624 239.962341,268.827850 
	C234.850037,264.432526 233.990784,258.737030 235.648438,252.085205 
z"/>
<path fill="#EBF3F8" opacity="1.000000" stroke="none" 
	d="
M102.613571,305.702271 
	C107.508118,300.100891 113.489662,299.897278 119.796799,301.062531 
	C123.183907,301.688293 124.369507,303.400299 122.683182,306.000610 
	C118.771492,305.307953 115.198830,304.252441 111.621613,304.236755 
	C110.049416,304.229858 108.139336,306.074768 106.953339,307.540619 
	C103.626099,311.652954 104.005219,319.964050 107.412247,323.847778 
	C110.785248,327.692719 115.294548,327.714203 122.362709,323.918945 
	C122.694878,324.204437 123.027039,324.489929 123.359207,324.775421 
	C122.172318,326.156342 121.253479,328.162598 119.750755,328.806763 
	C114.140808,331.211609 108.708725,330.686798 103.988312,326.454559 
	C99.698418,322.608368 98.146446,315.782318 100.276337,309.927979 
	C100.780113,308.543243 101.662979,307.296448 102.613571,305.702271 
z"/>
<path fill="#EBF3F8" opacity="1.000000" stroke="none" 
	d="
M291.264526,187.592636 
	C290.380676,186.442215 289.885315,185.205551 289.227936,183.564423 
	C296.723816,183.564423 303.330231,183.564423 310.429047,183.564423 
	C310.491272,184.891724 310.552368,186.194733 310.617828,187.591553 
	C307.801788,187.372604 305.398438,187.185745 302.527710,186.962555 
	C302.527710,195.506531 302.527710,203.584213 302.527710,211.841614 
	C300.822693,211.919144 299.547211,211.977127 297.837067,212.054901 
	C297.837067,203.728073 297.837067,195.673157 297.837067,186.986313 
	C295.465424,187.185776 293.559235,187.346085 291.264526,187.592636 
z"/>
<path fill="#F3F8FB" opacity="1.000000" stroke="none" 
	d="
M342.880066,197.258301 
	C340.077728,198.307297 337.291199,198.923431 334.171326,199.613251 
	C334.171326,202.326721 334.171326,205.381622 334.171326,208.130768 
	C337.284210,210.386261 342.530914,205.183990 344.552399,211.860245 
	C339.132019,211.860245 334.368164,211.860245 329.250763,211.860245 
	C329.250763,202.687744 329.250763,193.505173 329.250763,184.338394 
	C340.322296,182.730255 343.367004,183.348618 343.508057,187.370132 
	C340.587860,187.370132 337.664337,187.370132 334.317139,187.370132 
	C334.317139,189.939713 334.317139,192.478745 334.317139,194.971741 
	C337.122467,195.577927 340.009155,196.201691 342.880066,197.258301 
z"/>
<path fill="#E3EFF5" opacity="1.000000" stroke="none" 
	d="
M148.716248,211.574585 
	C147.181168,211.970901 145.899048,211.970901 144.164490,211.970901 
	C144.164490,203.541916 144.164490,195.457809 144.164490,186.914871 
	C141.417282,187.167114 139.160080,187.374359 136.382965,187.629349 
	C136.314377,186.365570 136.243164,185.053391 136.161224,183.543594 
	C143.209427,183.543594 149.837814,183.543594 156.790100,183.543594 
	C156.954376,184.720871 157.127121,185.958893 157.360657,187.632599 
	C154.539795,187.389191 152.006882,187.170639 148.969223,186.908539 
	C148.969223,195.259811 148.969223,203.219055 148.716248,211.574585 
z"/>
<path fill="#F0F6FA" opacity="1.000000" stroke="none" 
	d="
M337.175537,318.578003 
	C337.173492,322.155304 337.173492,325.294434 337.173492,328.790955 
	C335.542542,328.881714 334.156921,328.958832 331.839294,329.087769 
	C334.866699,317.816956 327.741730,310.073364 322.863403,301.293854 
	C326.482269,300.597229 329.202362,300.542480 330.714447,304.397644 
	C331.785950,307.129547 333.493500,309.612000 334.923981,312.218292 
	C339.631805,309.247742 337.793091,300.491638 345.893677,300.970581 
	C342.910370,306.847198 340.043976,312.493530 337.175537,318.578003 
z"/>
<path fill="#E7F1F7" opacity="1.000000" stroke="none" 
	d="
M329.875458,257.995789 
	C329.875427,252.683456 329.875427,247.869370 329.875427,242.781647 
	C331.501129,242.781647 332.867340,242.781647 334.719299,242.781647 
	C334.719299,250.987610 334.719299,259.078461 334.719299,266.732544 
	C338.032349,269.262634 343.392548,264.111450 345.258514,270.801422 
	C340.006378,270.801422 335.262909,270.801422 329.875488,270.801422 
	C329.875488,266.696991 329.875488,262.595490 329.875458,257.995789 
z"/>
<path fill="#E8F2F7" opacity="1.000000" stroke="none" 
	d="
M114.985855,208.216187 
	C116.443932,209.023666 117.470345,209.841492 118.496750,210.659302 
	C118.226349,211.068893 117.955940,211.478470 117.685532,211.888062 
	C112.963501,211.888062 108.241463,211.888062 103.274948,211.888062 
	C103.274948,202.563477 103.274948,193.487808 103.274948,183.962601 
	C104.448280,183.813034 105.807358,183.639786 107.752182,183.391876 
	C107.752182,191.853989 107.752182,200.060013 107.752182,208.745972 
	C110.398529,208.543884 112.476349,208.385208 114.985855,208.216187 
z"/>
<path fill="#FBFDFE" opacity="1.000000" stroke="none" 
	d="
M205.786926,252.018875 
	C205.786880,248.729599 205.786880,245.938950 205.786880,242.946930 
	C207.372574,242.946930 208.562759,242.946930 209.986145,242.946930 
	C209.986145,252.168488 209.986145,261.238159 209.986145,270.651550 
	C208.822998,270.752228 207.610245,270.857178 205.786957,271.014984 
	C205.786957,264.669617 205.786957,258.593567 205.786926,252.018875 
z"/>
<path fill="#FBFDFE" opacity="1.000000" stroke="none" 
	d="
M175.786926,205.913834 
	C175.786896,198.477951 175.786896,191.528961 175.786896,184.102280 
	C177.187454,183.984390 178.481506,183.875473 180.014359,183.746445 
	C180.014359,193.259262 180.014359,202.315994 180.014359,211.713043 
	C178.770859,211.800308 177.562454,211.885117 175.786972,212.009720 
	C175.786972,209.938553 175.786972,208.169647 175.786926,205.913834 
z"/>
<path fill="#F9FDFE" opacity="1.000000" stroke="none" 
	d="
M158.355591,130.487762 
	C156.574936,129.933868 155.248199,129.380112 153.921463,128.826355 
	C155.023697,128.102188 156.036972,127.128326 157.244003,126.698280 
	C161.777878,125.082916 163.889832,121.772896 163.907669,117.176956 
	C163.987900,96.521294 163.947739,75.865196 164.003113,55.209385 
	C164.014481,50.968857 160.861420,50.807167 157.955093,50.012943 
	C156.635468,49.652328 155.491913,48.647484 154.268478,47.934875 
	C155.528503,47.457840 156.779587,46.598278 158.050049,46.568657 
	C164.210251,46.425018 170.384079,46.695320 176.535736,46.424747 
	C179.685547,46.286213 180.840652,47.653076 181.808151,50.347622 
	C187.822235,67.097061 193.984818,83.793221 200.114487,100.501060 
	C200.669525,102.013969 201.340256,103.484428 202.328354,105.870857 
	C208.777527,88.119965 214.885361,71.309456 220.992493,54.498692 
	C223.896927,46.503807 223.896332,46.503086 232.275574,46.503841 
	C237.439636,46.504311 242.606964,46.412251 247.764877,46.591106 
	C248.745682,46.625111 249.689163,47.734486 250.649857,48.347702 
	C249.762756,48.857941 248.924225,49.682457 247.980789,49.828316 
	C240.915222,50.920666 240.133545,51.585754 240.107910,58.620682 
	C240.035049,78.609474 240.034775,98.598900 240.110443,118.587685 
	C240.136093,125.367836 241.128006,126.247314 247.694305,127.164665 
	C248.734253,127.309944 249.659958,128.272995 250.638489,128.857941 
	C249.609756,129.400101 248.586487,130.400970 247.551483,130.413269 
	C237.557922,130.532104 227.561874,130.530487 217.568176,130.418381 
	C216.498398,130.406372 215.438950,129.473358 214.374710,128.967590 
	C215.483582,128.338974 216.588028,127.181580 217.702057,127.172302 
	C222.811462,127.129723 224.902832,124.511642 224.899399,119.670761 
	C224.884781,99.055962 224.893188,78.441139 223.976166,57.543491 
	C214.975784,81.948830 205.975403,106.354164 196.975021,130.759491 
	C196.424561,130.757156 195.874100,130.754822 195.323639,130.752487 
	C186.504196,106.866653 177.684769,82.980820 168.865326,59.094994 
	C168.581238,59.106403 168.297150,59.117813 168.013062,59.129223 
	C168.013062,60.640400 168.013153,62.151577 168.013031,63.662754 
	C168.011703,80.654198 167.998672,97.645653 168.013947,114.637085 
	C168.021530,123.086586 169.663376,125.119286 177.662872,127.142349 
	C178.526276,127.360703 179.194382,128.351364 179.953079,128.983780 
	C179.068604,129.480774 178.192871,130.389542 177.298264,130.408478 
	C171.137543,130.538956 164.972900,130.483551 158.355591,130.487762 
z"/>
<path fill="#F5FBFD" opacity="1.000000" stroke="none" 
	d="
M273.045502,115.169250 
	C272.621002,116.495361 272.266418,117.430542 272.000244,118.390221 
	C270.359283,124.306648 271.238892,125.662621 277.230133,127.086845 
	C278.255646,127.330620 279.102325,128.326706 280.031616,128.975250 
	C278.995758,129.483612 277.968048,130.411911 276.922699,130.432236 
	C270.107300,130.564743 263.288116,130.500351 254.890518,130.500351 
	C256.427185,128.583649 257.128723,127.510193 258.021637,126.631157 
	C261.011932,123.687363 265.333618,121.367363 266.890961,117.819016 
	C274.907043,99.555031 282.220581,80.982735 289.775513,62.516472 
	C289.901031,62.209591 290.115143,61.854042 290.055969,61.569431 
	C289.354004,58.192753 289.009949,55.215153 292.443054,52.636765 
	C295.156036,50.599216 297.116730,47.560051 299.861053,44.457474 
	C300.831543,46.487240 301.643951,48.063110 302.351501,49.684734 
	C312.260651,72.395134 322.179474,95.101379 332.033875,117.835533 
	C334.032867,122.447296 336.320709,126.524712 342.068451,127.055893 
	C342.773743,127.121063 343.390198,128.147690 344.047821,128.728775 
	C343.255646,129.316223 342.468811,130.406586 341.670441,130.415115 
	C331.012604,130.529022 320.352905,130.521027 309.694641,130.427917 
	C308.954681,130.421463 308.222748,129.501953 307.487061,129.007034 
	C308.241211,128.371750 308.908478,127.355949 309.763153,127.160728 
	C317.374390,125.422264 317.465912,124.313187 315.243164,117.049088 
	C312.438232,107.882347 307.457184,103.840538 297.662415,105.472900 
	C292.800964,106.283081 287.669250,105.915352 282.703552,105.524551 
	C278.219238,105.171646 275.333008,106.236984 274.597351,111.078644 
	C274.402802,112.359070 273.651764,113.554947 273.045502,115.169250 
M290.374268,70.929214 
	C286.425690,80.765312 282.477081,90.601418 278.384155,100.797005 
	C288.344147,100.797005 297.638916,100.797005 307.569824,100.797005 
	C302.509064,89.098396 297.701080,77.984131 292.535156,66.042519 
	C291.632050,68.131653 291.175171,69.188545 290.374268,70.929214 
z"/>
<path fill="#F9FCFE" opacity="1.000000" stroke="none" 
	d="
M138.951630,52.031647 
	C138.133347,55.409916 137.129807,58.467339 137.087646,61.537960 
	C136.906998,74.693779 137.010239,87.853485 137.008713,101.011772 
	C137.006531,119.813499 129.868011,128.622513 111.065903,131.166061 
	C103.607155,132.175095 95.705597,131.925629 88.272064,130.670853 
	C74.422272,128.332962 66.503212,118.717346 66.096336,104.512489 
	C65.691147,90.366180 65.976746,76.200760 65.899162,62.044044 
	C65.868614,56.468594 66.207184,50.591614 58.337685,49.718544 
	C57.873249,49.667023 57.526421,48.555481 57.124866,47.937218 
	C58.034245,47.461647 58.937706,46.586922 59.853928,46.573349 
	C67.514046,46.459888 75.176521,46.503685 82.838280,46.502571 
	C85.003540,46.502254 87.190674,46.335152 89.323151,46.601658 
	C90.161240,46.706398 90.877090,47.789330 91.648605,48.426800 
	C90.899269,48.905041 90.204262,49.658710 89.392189,49.818859 
	C81.395805,51.395863 81.075661,51.630695 81.035233,59.683079 
	C80.964989,73.673775 81.018082,87.665092 81.019928,101.656151 
	C81.019943,101.822678 81.021912,101.989426 81.030243,102.155701 
	C81.509262,111.704018 82.592987,121.330399 92.311684,126.118919 
	C102.840523,131.306595 113.475075,129.532745 123.287125,123.656586 
	C129.763306,119.778168 132.829590,113.459122 132.913284,106.010796 
	C133.087311,90.522705 133.049744,75.030869 132.943253,59.541641 
	C132.896912,52.800156 130.955444,50.938709 124.161659,49.840160 
	C123.129578,49.673279 122.228920,48.693596 121.267479,48.089863 
	C122.310852,47.561295 123.344742,46.598179 124.399139,46.575188 
	C130.891907,46.433605 137.391083,46.429489 143.883301,46.583500 
	C144.874939,46.607025 145.841507,47.688042 146.819672,48.279953 
	C145.962036,48.817589 145.155121,49.473934 144.235626,49.866802 
	C142.595856,50.567436 140.888077,51.108868 138.951630,52.031647 
z"/>
<path fill="#056CA7" opacity="1.000000" stroke="none" 
	d="
M204.565903,305.118073 
	C208.816132,309.134186 209.665878,315.427795 207.045410,320.882568 
	C204.970383,325.201935 201.200394,326.588287 193.975983,325.556824 
	C193.975983,318.523956 193.975983,311.452606 193.975983,303.251404 
	C197.583099,303.846558 200.886734,304.391632 204.565903,305.118073 
z"/>
<path fill="#076EA8" opacity="1.000000" stroke="none" 
	d="
M159.895676,252.141586 
	C159.895691,249.856216 159.895691,248.048218 159.895691,246.091263 
	C164.927933,244.842514 169.726074,244.888092 172.863495,248.956604 
	C176.197769,253.280365 175.309906,258.465912 173.043015,263.103516 
	C170.459534,268.388794 165.449142,268.144745 159.895660,267.903778 
	C159.895660,262.767731 159.895660,257.693359 159.895676,252.141586 
z"/>
<path fill="#0597C9" opacity="1.000000" stroke="none" 
	d="
M290.546265,70.587326 
	C291.175171,69.188545 291.632050,68.131653 292.535156,66.042519 
	C297.701080,77.984131 302.509064,89.098396 307.569824,100.797005 
	C297.638916,100.797005 288.344147,100.797005 278.384155,100.797005 
	C282.477081,90.601418 286.425690,80.765312 290.546265,70.587326 
z"/>
</svg>